<svg width="48" height="48" viewBox="0 0 48 48" fill="none" xmlns="http://www.w3.org/2000/svg">
<path d="M43.131 12.9825C42.9238 12.6201 42.6363 12.31 42.2906 12.0759C41.9449 11.8419 41.5502 11.6902 41.1367 11.6325C39.0516 11.3338 36.9248 11.6653 35.0295 12.5843L28.5652 15.7185L20.235 14.2328C20.0415 14.1982 19.8422 14.2411 19.68 14.352L17.4435 15.8813C17.3351 15.9554 17.248 16.0568 17.1911 16.1751C17.1341 16.2935 17.1093 16.4248 17.119 16.5558C17.1287 16.6868 17.1727 16.8129 17.2465 16.9216C17.3203 17.0303 17.4213 17.1176 17.5395 17.175L21.5512 19.1205L13.8082 22.875C13.716 22.9189 13.6151 22.9413 13.513 22.9405C13.4109 22.9397 13.3103 22.9158 13.2187 22.8705L9.28948 20.8868C8.95132 20.7162 8.57368 20.6392 8.19573 20.6637C7.81777 20.6882 7.45326 20.8134 7.13998 21.0263L5.49898 22.1415C5.30183 22.2869 5.13951 22.4743 5.02382 22.6902C4.90812 22.9061 4.84195 23.1451 4.8301 23.3897C4.81825 23.6344 4.86102 23.8786 4.95531 24.1047C5.04961 24.3308 5.19305 24.533 5.37523 24.6968L11.2725 30.015C11.304 30.0435 11.3407 30.0638 11.3737 30.09L7.81723 31.65C7.64108 31.7335 7.50434 31.8822 7.43598 32.0648C7.36762 32.2473 7.37302 32.4493 7.45103 32.6279C7.52903 32.8066 7.67352 32.9478 7.85388 33.0217C8.03423 33.0957 8.23629 33.0965 8.41723 33.024L14.1922 30.4905H14.1997L16.8247 29.3393L17.715 28.9485L22.0837 27.0315L20.8687 32.193L17.1112 33.843C16.9351 33.9265 16.7983 34.0752 16.73 34.2578C16.6616 34.4403 16.667 34.6423 16.745 34.8209C16.823 34.9996 16.9675 35.1408 17.1479 35.2147C17.3282 35.2887 17.5303 35.2895 17.7112 35.217L21.8092 33.417L26.3512 31.425C26.4452 31.3837 26.5295 31.3231 26.5987 31.2473C26.616 31.2293 26.6235 31.2045 26.6392 31.1843C26.6863 31.1263 26.7245 31.0615 26.7525 30.9923C26.7525 30.987 26.7592 30.9825 26.7615 30.9765L29.121 23.9423L39.336 19.4588C41.139 18.6728 42.5612 17.21 43.296 15.3855C43.4541 14.999 43.5215 14.5814 43.4929 14.1648C43.4643 13.7482 43.3405 13.3437 43.131 12.9825ZM19.356 16.3898L20.2717 15.7635L26.2665 16.833L23.2665 18.2873L19.356 16.3898ZM41.904 14.8208C41.3153 16.2822 40.1763 17.454 38.7322 18.084L29.766 22.02L30.6982 19.2405C30.7296 19.1469 30.7422 19.0481 30.7354 18.9497C30.7286 18.8512 30.7024 18.7551 30.6585 18.6667C30.6145 18.5784 30.5535 18.4996 30.4791 18.4348C30.4046 18.37 30.3182 18.3205 30.2246 18.2891C30.131 18.2578 30.0322 18.2451 29.9338 18.2519C29.8353 18.2588 29.7392 18.2849 29.6508 18.3289C29.5625 18.3729 29.4837 18.4338 29.4189 18.5083C29.3541 18.5827 29.3046 18.6692 29.2732 18.7628L27.8385 23.0475C27.7979 23.1222 27.7707 23.2034 27.7582 23.2875L25.4445 30.1838L23.649 30.975L22.59 31.4393L23.865 26.0123C23.8695 26.0025 23.865 25.9913 23.8725 25.98L24.9075 21.585C24.9301 21.4891 24.9336 21.3897 24.9178 21.2925C24.902 21.1953 24.8672 21.1021 24.8153 21.0183C24.7635 20.9345 24.6957 20.8618 24.6158 20.8042C24.5359 20.7466 24.4454 20.7054 24.3495 20.6828C24.2536 20.6601 24.1542 20.6567 24.057 20.6725C23.9597 20.6883 23.8666 20.7231 23.7828 20.7749C23.699 20.8267 23.6263 20.8945 23.5687 20.9744C23.5111 21.0544 23.4698 21.1449 23.4472 21.2408L22.5172 25.2L16.2847 27.936L13.5945 29.115C13.3773 29.2091 13.1378 29.2389 12.9042 29.2008C12.6706 29.1628 12.4528 29.0586 12.2767 28.9005L6.38023 23.583C6.36318 23.5679 6.34979 23.5491 6.34109 23.5281C6.33238 23.507 6.32858 23.4842 6.32998 23.4615C6.32978 23.4256 6.34287 23.3909 6.36673 23.364L7.98298 22.266C8.07477 22.2032 8.18174 22.1663 8.29271 22.159C8.40368 22.1517 8.51455 22.1745 8.61373 22.2248L12.543 24.2085C12.8405 24.3578 13.1684 24.4367 13.5012 24.4393C13.8341 24.4419 14.1631 24.3681 14.463 24.2235L35.6827 13.935C37.31 13.1462 39.136 12.8621 40.926 13.119C41.1135 13.1453 41.2926 13.214 41.4495 13.32C41.6065 13.426 41.7371 13.5664 41.8316 13.7305C41.9261 13.8946 41.9818 14.0782 41.9946 14.2671C42.0074 14.456 41.9769 14.6454 41.9055 14.8208H41.904ZM4.96573 32.9025C4.87434 32.9391 4.79232 32.9957 4.72573 33.0683C4.65485 33.1361 4.59839 33.2176 4.55973 33.3078C4.52107 33.398 4.50101 33.4951 4.50073 33.5933C4.50105 33.6926 4.5211 33.7909 4.55972 33.8825C4.59835 33.974 4.65478 34.057 4.72573 34.1265C4.83115 34.2295 4.96459 34.2992 5.10939 34.3269C5.25418 34.3545 5.40391 34.3389 5.53986 34.2819C5.67582 34.2249 5.79197 34.1291 5.8738 34.0065C5.95563 33.8839 5.99952 33.7399 5.99998 33.5925C6.00111 33.4948 5.98242 33.398 5.94504 33.3077C5.90765 33.2175 5.85235 33.1358 5.78248 33.0675C5.67791 32.9623 5.54451 32.8905 5.39913 32.8611C5.25375 32.8318 5.10293 32.8462 4.96573 32.9025ZM14.7907 35.0333C14.6536 34.9791 14.5038 34.9651 14.3591 34.993C14.2143 35.0209 14.0804 35.0895 13.9732 35.1908C13.8361 35.3344 13.7583 35.5246 13.7557 35.7233C13.7543 35.8205 13.7722 35.9171 13.8082 36.0075C13.8491 36.0988 13.9048 36.1828 13.9732 36.2558C14.078 36.3609 14.212 36.4321 14.3578 36.4601C14.5036 36.488 14.6545 36.4715 14.7907 36.4125C14.8839 36.379 14.9686 36.3254 15.0386 36.2554C15.1086 36.1853 15.1623 36.1007 15.1957 36.0075C15.2342 35.9176 15.2546 35.821 15.2557 35.7233C15.2531 35.5246 15.1754 35.3344 15.0382 35.1908C14.9669 35.1225 14.8828 35.0689 14.7907 35.0333Z" fill="#001A72"/>
<path d="M14.8582 18.6675C14.927 18.7367 15.0088 18.7915 15.0989 18.8288C15.189 18.8661 15.2857 18.8852 15.3832 18.885C15.4832 18.8872 15.5827 18.8693 15.6757 18.8325C15.7656 18.7934 15.8471 18.7374 15.9157 18.6675C16.0185 18.5613 16.0888 18.4278 16.118 18.2829C16.1473 18.138 16.1343 17.9878 16.0807 17.85C16.0416 17.7601 15.9856 17.6787 15.9157 17.61C15.8489 17.538 15.7669 17.4816 15.6757 17.445C15.5378 17.3895 15.3871 17.3739 15.2407 17.4C15.1882 17.415 15.1432 17.43 15.0982 17.445C15.0535 17.463 15.0107 17.4856 14.9707 17.5125C14.9284 17.5389 14.8904 17.5718 14.8582 17.61C14.7859 17.6766 14.7295 17.7587 14.6932 17.85C14.6536 17.9411 14.6332 18.0394 14.6332 18.1388C14.6332 18.2381 14.6536 18.3364 14.6932 18.4275C14.7295 18.5189 14.7859 18.6009 14.8582 18.6675Z" fill="#001A72"/>
</svg>
