<svg width="48" height="48" viewBox="0 0 48 48" fill="none" xmlns="http://www.w3.org/2000/svg">
<path d="M18.432 23.232H14.832C14.544 23.232 14.352 23.04 14.352 22.752C14.352 22.464 14.544 22.272 14.832 22.272H18.432C18.72 22.272 18.912 22.464 18.912 22.752C18.912 23.04 18.72 23.232 18.432 23.232ZM21.072 23.232H20.4C20.112 23.232 19.92 23.04 19.92 22.752C19.92 22.464 20.112 22.272 20.4 22.272H21.072C21.36 22.272 21.552 22.464 21.552 22.752C21.552 23.04 21.36 23.232 21.072 23.232ZM20.208 35.904C19.92 35.904 19.728 35.712 19.728 35.424C19.728 34.128 18.672 33.12 17.424 33.12C16.992 33.12 16.56 33.264 16.176 33.456C16.032 33.552 15.888 33.552 15.744 33.504C15.6 33.456 15.504 33.312 15.456 33.168C15.072 31.824 13.872 30.912 12.48 30.912C10.752 30.912 9.408 32.304 9.408 33.984C9.408 34.272 9.216 34.464 8.928 34.464C8.64 34.464 8.448 34.272 8.448 33.984C8.448 31.728 10.272 29.952 12.48 29.952C14.112 29.952 15.552 30.912 16.176 32.352C16.56 32.208 16.992 32.112 17.376 32.112C19.2 32.112 20.64 33.6 20.64 35.376C20.688 35.664 20.496 35.904 20.208 35.904ZM30.48 34.224C30.192 34.224 30 34.032 30 33.744C30 32.016 31.44 30.576 33.168 30.576C33.552 30.576 33.984 30.672 34.32 30.816C34.944 29.424 36.336 28.464 37.92 28.464C40.08 28.464 41.856 30.24 41.856 32.4C41.856 32.688 41.664 32.88 41.376 32.88C41.088 32.88 40.896 32.688 40.896 32.4C40.896 30.768 39.552 29.424 37.92 29.424C36.576 29.424 35.424 30.336 35.04 31.584C34.992 31.728 34.896 31.872 34.752 31.92C34.608 31.968 34.464 31.968 34.32 31.872C33.984 31.632 33.552 31.536 33.12 31.536C31.92 31.536 30.912 32.544 30.912 33.744C30.96 34.032 30.72 34.224 30.48 34.224Z" fill="#001A72"/>
<path d="M44.208 23.328L44.016 23.136C42.672 21.744 39.744 20.784 37.824 20.736H14.064C11.616 19.776 9.50403 18.096 8.06403 15.888C7.96803 15.744 7.82403 15.696 7.68003 15.696H4.32003C4.17603 15.696 3.98403 15.792 3.93603 15.936C3.84003 16.08 3.84003 16.272 3.88803 16.416L6.00003 20.784C5.80803 20.832 5.66403 21.024 5.66403 21.216V21.984H5.08803C4.41603 21.984 3.84003 22.512 3.84003 23.232C3.84003 23.952 4.36803 24.48 5.08803 24.48H6.09603C10.464 26.304 15.024 27.216 19.776 27.216H27.216C27.552 27.648 28.128 27.984 28.752 27.984H33.408C33.696 27.984 33.888 27.792 33.888 27.504V27.216H41.76C42.72 27.216 43.632 26.784 44.304 26.064C44.976 25.296 44.928 24.096 44.208 23.328ZM7.39203 16.704C8.59203 18.384 10.08 19.776 11.856 20.784H7.00803L5.04003 16.704H7.39203ZM4.75203 23.232C4.75203 23.088 4.84803 22.944 5.04003 22.944H9.88803C10.032 22.944 10.176 23.04 10.176 23.232C10.176 23.376 10.08 23.52 9.88803 23.52H6.14403H5.08803C4.89603 23.472 4.75203 23.376 4.75203 23.232ZM32.832 26.976H28.656C28.128 26.976 27.648 26.544 27.648 25.968C27.648 25.44 28.08 24.96 28.656 24.96H32.832V26.976ZM43.584 25.392C43.104 25.92 42.48 26.208 41.76 26.208H33.792V24.48C33.792 24.192 33.6 24 33.312 24H28.656C27.552 24 26.688 24.864 26.688 25.968C26.688 26.064 26.688 26.112 26.736 26.208H19.68C15.936 26.208 12.288 25.584 8.78403 24.432H9.88803C10.56 24.432 11.136 23.904 11.136 23.184C11.136 22.464 10.608 21.936 9.88803 21.936H6.62403V21.648H37.92C39.36 21.648 41.568 22.32 42.864 23.28H40.8C40.512 23.28 40.32 23.472 40.32 23.76C40.32 24.048 40.512 24.24 40.8 24.24H43.776C43.92 24.672 43.872 25.104 43.584 25.392Z" fill="#001A72"/>
<path d="M15.504 18.384H18.144C18.288 18.384 18.384 18.288 18.384 18.144C18.384 18 18.288 17.904 18.144 17.904H15.504C15.36 17.904 15.264 18 15.264 18.144C15.264 18.288 15.36 18.384 15.504 18.384ZM20.352 17.232H27.792C27.936 17.232 28.032 17.136 28.032 16.992C28.032 16.848 27.936 16.752 27.792 16.752H20.352C20.208 16.752 20.112 16.848 20.112 16.992C20.112 17.136 20.208 17.232 20.352 17.232Z" fill="#001A72"/>
</svg>
