<svg width="48" height="49" viewBox="0 0 48 49" fill="none" xmlns="http://www.w3.org/2000/svg">
<g id="Baby">
<path id="Vector" fill-rule="evenodd" clip-rule="evenodd" d="M17.9292 26.8499C19.227 27.844 19.4901 29.7244 18.5167 31.0499L15.5792 35.0499C15.0244 35.8053 14.1538 36.2499 13.2292 36.2499H9.3125C7.69017 36.2499 6.375 34.9068 6.375 33.2499C6.375 31.5931 7.69017 30.2499 9.3125 30.2499H11.7604L13.8167 27.4499C14.7901 26.1244 16.6313 25.8558 17.9292 26.8499Z" fill="#001A72"/>
<path id="Vector_2" d="M39.1517 30.6434H36.0143L35.4565 30.3813C34.0273 28.7593 31.7121 25.2327 29.7722 24.022C28.9519 23.5097 28.0295 23.244 27.0929 23.2501H27.0883H21.5521L22.1258 36.25H26.7562H26.7573C27.5218 36.2486 28.2784 36.0731 28.9818 35.7336C29.6857 35.3942 30.3221 34.8977 30.8532 34.2737L31.4109 33.6186C32.115 34.4178 32.7652 36.25 33.8102 36.25H39.2827C39.9388 36.25 40.4367 35.9547 40.9008 35.429C41.3645 34.9032 41.6251 34.1901 41.6251 33.4467C41.6251 32.7033 41.3645 31.9902 40.9008 31.4646C40.4367 30.9387 39.8077 30.6434 39.1517 30.6434ZM39.6667 15.75C39.6667 19.3399 36.8172 22.25 33.3021 22.25C29.787 22.25 26.9375 19.3399 26.9375 15.75C26.9375 12.1601 29.787 9.25 33.3021 9.25C36.8172 9.25 39.6667 12.1601 39.6667 15.75Z" fill="#001A72"/>
<path id="Vector_3" fill-rule="evenodd" clip-rule="evenodd" d="M33.3021 20.25C35.7356 20.25 37.7083 18.2353 37.7083 15.75C37.7083 13.2647 35.7356 11.25 33.3021 11.25C30.8686 11.25 28.8958 13.2647 28.8958 15.75C28.8958 18.2353 30.8686 20.25 33.3021 20.25ZM33.3021 22.25C36.8172 22.25 39.6667 19.3399 39.6667 15.75C39.6667 12.1601 36.8172 9.25 33.3021 9.25C29.787 9.25 26.9375 12.1601 26.9375 15.75C26.9375 19.3399 29.787 22.25 33.3021 22.25Z" fill="#001A72"/>
</g>
</svg>
