<svg width="36" height="41" viewBox="0 0 36 41" fill="none" xmlns="http://www.w3.org/2000/svg">
<g id="Child" clip-path="url(#clip0_231_910)">
<path id="Vector" d="M24.8096 3.98004C24.8113 4.76974 24.6365 5.55194 24.2952 6.28156C23.954 7.01117 23.4529 7.67377 22.821 8.23115C22.1924 8.78976 21.4452 9.23286 20.6224 9.53499C19.7997 9.83711 18.9176 9.9923 18.0269 9.99164H11.2366V5.97936C11.3212 4.62883 11.9865 3.35818 13.0958 2.42811C14.2051 1.49804 15.6744 0.97906 17.2022 0.977653H19.7149V4.1711C20.2688 4.04465 20.8385 3.98046 21.4105 3.98004H24.8096ZM23.0908 29.514C23.1175 30.1206 23.0055 30.7258 22.7617 31.2932C22.5179 31.8606 22.1472 32.3786 21.6718 32.8161C21.1965 33.2536 20.6262 33.6017 19.9953 33.8395C19.3643 34.0772 18.6857 34.1998 18 34.1998C17.3142 34.1998 16.6356 34.0772 16.0046 33.8395C15.3737 33.6017 14.8034 33.2536 14.3281 32.8161C13.8527 32.3786 13.482 31.8606 13.2382 31.2932C12.9944 30.7258 12.8824 30.1206 12.9091 29.514C12.9077 29.297 12.9257 29.0802 12.9631 28.8657L13.2714 28.7634L13.5643 28.8589L13.7724 28.9203L14.0652 29.0022L14.3967 29.0841L14.5662 29.125L14.8591 29.1865C15.1204 29.7268 15.5551 30.1874 16.1093 30.5111C16.6635 30.8348 17.3129 31.0074 17.9768 31.0074C18.6408 31.0074 19.2901 30.8348 19.8443 30.5111C20.3986 30.1874 20.8333 29.7268 21.0945 29.1865L21.3874 29.125L21.557 29.0841L21.8884 29.0022L22.1813 28.9203L22.3894 28.8589L22.6823 28.7634L22.9906 28.8657C23.0435 29.0791 23.077 29.2959 23.0908 29.514Z" stroke="#001A72" stroke-width="1.39" stroke-linecap="round" stroke-linejoin="round"/>
<path id="Vector_2" d="M34.9681 15.9964C34.9681 16.3913 34.8802 16.7823 34.7092 17.147C34.5383 17.5117 34.2878 17.843 33.9721 18.1218C33.6564 18.4007 33.2816 18.6217 32.8693 18.7722C32.4569 18.9227 32.0151 18.9997 31.5691 18.9988H31.4689C31.1613 21.1352 30.2126 23.1596 28.7215 24.8613C27.2304 26.563 25.2515 27.8798 22.9906 28.6747L22.7208 28.7634L22.4279 28.8589L22.2198 28.9203L21.9269 29.0022L21.5955 29.0841L21.426 29.125L21.1331 29.1865C20.8718 29.7268 20.4371 30.1874 19.8829 30.5111C19.3287 30.8348 18.6793 31.0074 18.0154 31.0074C17.3514 31.0074 16.7021 30.8348 16.1479 30.5111C15.5936 30.1874 15.1589 29.7268 14.8977 29.1865L14.6048 29.125L14.4352 29.0841L14.1038 29.0022L13.8109 28.9203L13.6028 28.8589L13.3099 28.7634L13.0401 28.6747C10.7792 27.8798 8.80028 26.563 7.30921 24.8613C5.81814 23.1596 4.86944 21.1352 4.56183 18.9988H4.46164C3.5622 18.9988 2.6996 18.6825 2.06361 18.1194C1.42761 17.5564 1.07031 16.7927 1.07031 15.9964C1.07031 15.2001 1.42761 14.4365 2.06361 13.8734C2.6996 13.3104 3.5622 12.994 4.46164 12.994H4.59266C4.89068 11.4037 5.66603 9.9136 6.83757 8.67955C8.00911 7.4455 9.53376 6.5129 11.252 5.97936V9.99164H18.0423C19.4639 9.99064 20.8494 9.59511 22.0038 8.86071C23.1583 8.1263 24.0236 7.08996 24.4781 5.89748C26.2751 6.3908 27.8816 7.31719 29.1176 8.57294C30.3536 9.8287 31.1704 11.3642 31.4766 13.0077H31.6076C32.4991 13.0148 33.3514 13.3325 33.9803 13.8918C34.6093 14.4511 34.9641 15.2072 34.9681 15.9964Z" stroke="#001A72" stroke-width="1.39" stroke-linecap="round" stroke-linejoin="round"/>
<path id="Vector_3" d="M4.43091 40.0292C4.4305 37.6267 5.24308 35.2792 6.76388 33.2894C8.28468 31.2996 10.4439 29.7588 12.9632 28.8657C12.9258 29.0802 12.9078 29.297 12.9092 29.514C12.8826 30.1206 12.9945 30.7258 13.2383 31.2932C13.4821 31.8606 13.8528 32.3786 14.3282 32.8161C14.8035 33.2536 15.3738 33.6017 16.0047 33.8395C16.6357 34.0772 17.3143 34.1998 18.0001 34.1998C18.6858 34.1998 19.3644 34.0772 19.9954 33.8395C20.6263 33.6017 21.1966 33.2536 21.6719 32.8161C22.1473 32.3786 22.518 31.8606 22.7618 31.2932C23.0056 30.7258 23.1176 30.1206 23.0909 29.514C23.0923 29.297 23.0743 29.0802 23.0369 28.8657C25.5562 29.7588 27.7154 31.2996 29.2362 33.2894C30.757 35.2792 31.5696 37.6267 31.5692 40.0292" stroke="#001A72" stroke-width="1.39" stroke-linecap="round" stroke-linejoin="round"/>
</g>
<defs>
<clipPath id="clip0_231_910">
<rect width="35" height="40" fill="white" transform="translate(0.5 0.5)"/>
</clipPath>
</defs>
</svg>
