<svg width="35" height="45" viewBox="0 0 35 45" fill="none" xmlns="http://www.w3.org/2000/svg">
<g id="couple" clip-path="url(#clip0_231_914)">
<path id="Vector" d="M13.7959 32.8389L13.9131 32.3132L14.6839 28.8558C14.4195 28.9596 14.1287 29.0167 13.8254 29.0167C13.7374 29.0167 13.6483 29.0116 13.5603 29.0019C12.9814 28.9378 12.4648 28.6714 12.1052 28.2523C11.7457 27.8336 11.5867 27.3115 11.6574 26.7834C12.4076 21.1621 13.8759 16.9702 16.0183 14.3129V14.2027C16.0302 14.2249 16.0418 14.2454 16.0537 14.268C16.0792 14.2369 16.1033 14.2031 16.1289 14.1724C16.9814 13.1406 17.8356 12.5041 18.548 12.1081C18.504 12.0429 18.4595 11.9787 18.4146 11.9161C17.7317 10.9698 16.9326 10.3632 16.1946 10.0268C15.4785 9.69766 14.8494 9.625 14.4756 9.62215C14.454 9.62139 14.4332 9.61912 14.4114 9.61912H6.38031C6.36118 9.61912 6.34247 9.6212 6.32376 9.62177C5.95145 9.62405 5.31782 9.6952 4.59668 10.0272C3.47869 10.5326 2.27339 11.6401 1.42939 13.6013C0.575832 15.5704 0.00270246 18.4171 0 22.7163C0 23.8275 0.0392897 25.0359 0.12369 26.3514C0.175244 27.1578 0.908027 27.7805 1.78238 27.7805C1.81522 27.7805 1.84807 27.7795 1.88154 27.7778C2.7983 27.7289 3.49782 27.0107 3.44439 26.174C3.3629 24.9122 3.32611 23.7626 3.32611 22.7163C3.31904 18.1217 4.05307 15.541 4.7738 14.1942V42.6542C4.7738 43.9501 5.92484 44.9998 7.34384 44.9998C8.76325 44.9998 9.9143 43.9501 9.9143 42.6542V25.5275H10.8778V42.6542C10.8778 43.9501 12.0289 44.9998 13.4479 44.9998C14.8673 44.9998 16.0183 43.9501 16.0183 42.6542V33.8124C14.9367 33.4561 14.3561 33.1451 14.3004 33.1148L13.7959 32.8389Z" fill="#001A72"/>
<path id="Vector_2" d="M10.3963 8.53767C12.9796 8.53767 15.0737 6.62645 15.0737 4.26884C15.0737 1.91122 12.9796 0 10.3963 0C7.81311 0 5.71899 1.91122 5.71899 4.26884C5.71899 6.62645 7.81311 8.53767 10.3963 8.53767Z" fill="#001A72"/>
<path id="Vector_3" d="M24.5828 35.2122C25.7538 35.1795 26.8072 35.0812 27.7405 34.9463V43.1024C27.7405 43.832 27.0771 44.4996 26.1616 44.4996C25.2453 44.4996 24.5828 43.8321 24.5828 43.1024V35.2122ZM15.4999 32.269C15.4267 32.2386 15.3609 32.2102 15.3027 32.1844L18.5961 17.4112L17.6808 17.0428C16.5374 18.9244 15.3434 22.0352 14.6699 27.1066L14.6684 27.1177C14.6135 27.4805 14.2228 27.8075 13.7161 27.7512L13.716 27.7512C13.2097 27.695 12.9309 27.2975 12.9786 26.9417L12.9786 26.9414C13.8537 20.3869 15.5719 16.8789 17.176 14.9503L17.177 14.949C18.4694 13.385 19.7311 12.8971 20.253 12.763C20.9018 13.2725 21.6747 13.636 22.5253 13.8166C22.9246 13.9016 23.3334 13.9446 23.7402 13.9446C25.0566 13.9446 26.2809 13.5111 27.2301 12.766C27.7577 12.9036 29.0112 13.3954 30.2954 14.9493L30.2964 14.9504C31.9002 16.8791 33.6182 20.3872 34.4943 26.9412C34.5417 27.2971 34.2626 27.6947 33.7569 27.7514C33.7187 27.7555 33.6819 27.7574 33.6464 27.7574C33.1851 27.7574 32.848 27.4474 32.8027 27.1065L32.8027 27.1064C32.2047 22.6112 31.1986 19.6498 30.1805 17.7284L30.1803 17.728C30.0506 17.4839 29.921 17.2562 29.7917 17.0438L28.8767 17.4128L32.1699 32.1844C32.1116 32.2102 32.0459 32.2385 31.9726 32.269C31.6054 32.4219 31.0502 32.6286 30.3125 32.8363C28.8373 33.2517 26.6308 33.6714 23.7361 33.6714C20.8414 33.6714 18.635 33.2517 17.1599 32.8363C16.4222 32.6286 15.8671 32.4219 15.4999 32.269ZM19.7321 34.9463C20.6653 35.0812 21.7188 35.1794 22.8898 35.212V43.1022C22.8898 43.8318 22.2266 44.4994 21.3109 44.4994C20.395 44.4994 19.7321 43.8319 19.7321 43.1022V34.9463Z" stroke="#001A72"/>
<path id="Vector_4" d="M24.6269 5.5C26.7988 5.9616 28.0821 7.91903 27.6 9.80859C27.1178 11.6981 25.0191 12.9368 22.8472 12.4752C20.6753 12.0136 19.392 10.0561 19.8742 8.16659C20.3563 6.27703 22.455 5.03839 24.6269 5.5Z" stroke="#001A72"/>
</g>
<defs>
<clipPath id="clip0_231_914">
<rect width="35" height="45" fill="white"/>
</clipPath>
</defs>
</svg>
