<svg width="41" height="41" viewBox="0 0 41 41" fill="none" xmlns="http://www.w3.org/2000/svg">
<path d="M12.1667 23.8333H20.5M35.343 17.1667H5.65706M35.343 17.1667C35.0627 14.2444 34.448 12.0209 33.8333 11.6111C33 11.0556 27.1667 10.5 20.5 10.5C13.8333 10.5 8 11.0556 7.16667 11.6111C6.55197 12.0209 5.9373 14.2444 5.65706 17.1667M35.343 17.1667C35.4427 18.2061 35.5 19.3339 35.5 20.5C35.5 24.9444 34.6667 28.8333 33.8333 29.3889C33 29.9444 27.1667 30.5 20.5 30.5C13.8333 30.5 8 29.9444 7.16667 29.3889C6.33333 28.8333 5.5 24.9444 5.5 20.5C5.5 19.3339 5.55739 18.2061 5.65706 17.1667" stroke="#2D3633" stroke-width="1.5" stroke-linecap="round" stroke-linejoin="round"/>
</svg>
