<svg width="43" height="44" viewBox="0 0 43 44" fill="none" xmlns="http://www.w3.org/2000/svg">
<g clip-path="url(#clip0_231_850)">
<path d="M17.3176 27.375C17.3695 27.599 17.4199 27.8229 17.4688 28.0469C20.7205 27.5159 24.0356 27.5023 27.2916 28.0066C28.3386 28.1607 29.3124 28.6347 30.0797 29.3635C30.847 30.0923 31.3703 31.0404 31.5781 32.0781H14.4184C13.9459 32.0785 13.4866 31.9215 13.1132 31.632C12.7397 31.3424 12.4732 30.9368 12.3558 30.4791L7.39063 11.25M7.39063 11.25C8.44549 11.2529 9.47933 11.5451 10.3797 12.0948C11.28 12.6445 12.0123 13.4305 12.4969 14.3675C13.9358 17.1159 15.1383 19.9817 16.0914 22.9339M7.39063 11.25C7.25088 10.1253 6.79804 9.18936 8.06251 7.21875M7.97651 3.00946L8.56239 2.79983C9.13626 2.59456 9.76816 2.62561 10.3191 2.88617C10.8701 3.14673 11.2951 3.61546 11.5005 4.18927L12.216 6.18675C12.3178 6.47095 12.3626 6.7724 12.3478 7.0739C12.333 7.37539 12.259 7.67103 12.13 7.94392C12.001 8.21682 11.8195 8.46163 11.5958 8.66437C11.3722 8.86711 11.1108 9.02382 10.8266 9.12554L10.2407 9.33516C10.1034 9.38436 9.95763 9.40601 9.81189 9.39887C9.66615 9.39173 9.52324 9.35594 9.39133 9.29355C9.25943 9.23115 9.14111 9.14337 9.04314 9.03523C8.94518 8.92708 8.86948 8.8007 8.82038 8.66329L7.30531 4.43047C7.2561 4.2931 7.23445 4.14738 7.24159 4.00163C7.24873 3.85589 7.28453 3.71298 7.34692 3.58108C7.40932 3.44917 7.4971 3.33085 7.60524 3.23289C7.71338 3.13492 7.83977 3.05923 7.97718 3.01013L7.97651 3.00946Z" stroke="#09298F" stroke-opacity="0.78" stroke-width="2" stroke-linecap="round" stroke-linejoin="round"/>
<path d="M11.4219 40.1406H32.25M28.2201 26.0313C28.139 26.0314 28.058 26.0242 27.9782 26.0098C23.2505 25.147 18.4057 25.147 13.678 26.0098C13.5044 26.0413 13.3262 26.0384 13.1537 26.0012C12.9812 25.9639 12.8177 25.893 12.6726 25.7926C12.5275 25.6921 12.4036 25.5641 12.3079 25.4157C12.2123 25.2674 12.1468 25.1017 12.1152 24.928C12.0837 24.7544 12.0866 24.5762 12.1239 24.4037C12.1611 24.2312 12.232 24.0677 12.3324 23.9226C12.4329 23.7775 12.5609 23.6536 12.7093 23.558C12.8576 23.4623 13.0233 23.3968 13.197 23.3653C18.2428 22.4447 23.4135 22.4447 28.4593 23.3653C28.7895 23.425 29.0853 23.6062 29.2887 23.8731C29.4921 24.14 29.5882 24.4734 29.5582 24.8076C29.5283 25.1418 29.3743 25.4527 29.1267 25.6792C28.879 25.9056 28.5557 26.0312 28.2201 26.0313ZM24.8594 40.1406H22.1719L18.1406 32.0781H20.8281L24.8594 40.1406Z" stroke="#09298F" stroke-opacity="0.78" stroke-width="2" stroke-linecap="round" stroke-linejoin="round"/>
<path d="M23.5519 5.875H20.7918C19.3276 5.875 18.1406 7.06199 18.1406 8.52622V12.63C18.1406 14.0943 19.3276 15.2812 20.7918 15.2812H23.5519C25.0161 15.2812 26.2031 14.0943 26.2031 12.63V8.52622C26.2031 7.06199 25.0161 5.875 23.5519 5.875Z" stroke="#09298F" stroke-opacity="0.78" stroke-width="2" stroke-linecap="round" stroke-linejoin="round"/>
</g>
<defs>
<clipPath id="clip0_231_850">
<rect width="43" height="43" fill="white" transform="translate(0 0.5)"/>
</clipPath>
</defs>
</svg>
