<svg width="46" height="45" viewBox="0 0 46 45" fill="none" xmlns="http://www.w3.org/2000/svg">
<g clip-path="url(#clip0_341_976)">
<path d="M10.5367 10.5908H13.4371V15.8643H10.5367V10.5908ZM32.563 10.5908H35.4633V15.8643H32.563V10.5908Z" fill="#EEEEEE"/>
<path d="M37.0186 0.65918H8.98145C8.25334 0.65918 7.66309 1.24943 7.66309 1.97754V10.5908C7.66309 11.3189 8.25334 11.9092 8.98145 11.9092H37.0186C37.7467 11.9092 38.3369 11.3189 38.3369 10.5908V1.97754C38.3369 1.24943 37.7467 0.65918 37.0186 0.65918Z" fill="#FF6666"/>
<path d="M37.0186 0.65918H34.3818C34.7315 0.65918 35.0668 0.798078 35.3141 1.04532C35.5613 1.29256 35.7002 1.62789 35.7002 1.97754V10.5908C35.7002 10.9405 35.5613 11.2758 35.3141 11.523C35.0668 11.7703 34.7315 11.9092 34.3818 11.9092H37.0186C37.3682 11.9092 37.7035 11.7703 37.9508 11.523C38.198 11.2758 38.3369 10.9405 38.3369 10.5908V1.97754C38.3369 1.62789 38.198 1.29256 37.9508 1.04532C37.7035 0.798078 37.3682 0.65918 37.0186 0.65918Z" fill="#FF4E4E"/>
<path d="M13.9104 3.58233L14.6462 5.07313C14.6651 5.11148 14.6931 5.14465 14.7277 5.16977C14.7623 5.1949 14.8025 5.21123 14.8448 5.21736L16.4899 5.45643C16.5386 5.4635 16.5844 5.48405 16.622 5.51576C16.6596 5.54747 16.6876 5.58907 16.7028 5.63586C16.718 5.68266 16.7198 5.73277 16.708 5.78053C16.6962 5.8283 16.6713 5.87182 16.6361 5.90616L15.4455 7.06658C15.4149 7.09643 15.392 7.13328 15.3788 7.17395C15.3656 7.21462 15.3625 7.25788 15.3698 7.30002L15.6508 8.93856C15.6591 8.98705 15.6536 9.0369 15.6351 9.08247C15.6166 9.12804 15.5856 9.16751 15.5458 9.19642C15.506 9.22534 15.4589 9.24254 15.4099 9.24608C15.3608 9.24962 15.3117 9.23937 15.2682 9.21647L13.7967 8.44286C13.7589 8.42297 13.7168 8.41257 13.674 8.41257C13.6313 8.41257 13.5891 8.42297 13.5513 8.44286L12.0798 9.21647C12.0362 9.23937 11.9871 9.24962 11.9381 9.24608C11.889 9.24254 11.8419 9.22534 11.8021 9.19642C11.7623 9.16751 11.7314 9.12804 11.7128 9.08247C11.6943 9.0369 11.6889 8.98705 11.6972 8.93856L11.9782 7.30002C11.9855 7.25788 11.9823 7.2146 11.9691 7.17394C11.9559 7.13327 11.933 7.09643 11.9024 7.06658L10.712 5.90625C10.6768 5.87191 10.6519 5.82839 10.6401 5.78062C10.6283 5.73286 10.6301 5.68274 10.6453 5.63595C10.6605 5.58916 10.6885 5.54756 10.7261 5.51585C10.7637 5.48414 10.8095 5.46358 10.8582 5.45651L12.5033 5.21745C12.5456 5.21132 12.5858 5.19499 12.6204 5.16986C12.655 5.14474 12.683 5.11157 12.7019 5.07322L13.4376 3.58242C13.4593 3.53829 13.493 3.50113 13.5348 3.47515C13.5766 3.44916 13.6248 3.43539 13.674 3.43539C13.7233 3.43539 13.7715 3.44916 13.8133 3.47515C13.8551 3.50113 13.8887 3.53829 13.9105 3.58242L13.9104 3.58233ZM23.2365 3.58233L23.9721 5.07313C23.9911 5.11148 24.0191 5.14465 24.0537 5.16977C24.0883 5.1949 24.1285 5.21123 24.1708 5.21736L25.8159 5.45643C25.8646 5.4635 25.9103 5.48405 25.948 5.51576C25.9856 5.54747 26.0136 5.58907 26.0288 5.63586C26.044 5.68266 26.0458 5.73277 26.034 5.78053C26.0222 5.8283 25.9973 5.87182 25.9621 5.90616L24.7716 7.06658C24.741 7.09643 24.7181 7.13327 24.7049 7.17394C24.6916 7.2146 24.6885 7.25788 24.6958 7.30002L24.9767 8.93856C24.985 8.98704 24.9796 9.03687 24.9611 9.08243C24.9425 9.12798 24.9116 9.16745 24.8718 9.19636C24.832 9.22527 24.785 9.24247 24.7359 9.24603C24.6869 9.24958 24.6378 9.23934 24.5942 9.21647L23.1227 8.44286C23.0848 8.42297 23.0427 8.41257 23 8.41257C22.9572 8.41257 22.9151 8.42297 22.8773 8.44286L21.4057 9.21647C21.3622 9.23934 21.3131 9.24958 21.2641 9.24603C21.215 9.24247 21.1679 9.22527 21.1281 9.19636C21.0884 9.16745 21.0574 9.12798 21.0389 9.08243C21.0204 9.03687 21.0149 8.98704 21.0232 8.93856L21.3042 7.30002C21.3115 7.25788 21.3083 7.2146 21.2951 7.17394C21.2819 7.13327 21.259 7.09643 21.2284 7.06658L20.0379 5.90625C20.0027 5.87191 19.9778 5.82839 19.966 5.78062C19.9542 5.73286 19.956 5.68274 19.9712 5.63595C19.9864 5.58916 20.0144 5.54756 20.052 5.51585C20.0896 5.48414 20.1354 5.46358 20.1841 5.45651L21.8293 5.21745C21.8716 5.21129 21.9117 5.19495 21.9463 5.16982C21.9809 5.1447 22.0088 5.11155 22.0277 5.07322L22.7636 3.58242C22.7853 3.53831 22.819 3.50117 22.8608 3.47521C22.9026 3.44924 22.9508 3.43548 23 3.43548C23.0492 3.43548 23.0974 3.44924 23.1392 3.47521C23.181 3.50117 23.2146 3.53831 23.2364 3.58242L23.2365 3.58233ZM32.5624 3.62628L33.2982 5.11708C33.3171 5.15542 33.3451 5.18857 33.3797 5.2137C33.4143 5.23883 33.4545 5.25516 33.4968 5.26131L35.1419 5.50037C35.1906 5.50744 35.2363 5.52799 35.2739 5.5597C35.3116 5.59142 35.3396 5.63302 35.3548 5.67981C35.37 5.7266 35.3718 5.77671 35.36 5.82448C35.3482 5.87225 35.3233 5.91576 35.2881 5.95011L34.0976 7.11053C34.067 7.14037 34.0441 7.17721 34.0308 7.21788C34.0176 7.25855 34.0145 7.30182 34.0217 7.34396L34.3028 8.98251C34.3111 9.031 34.3057 9.08085 34.2872 9.12641C34.2686 9.17198 34.2377 9.21146 34.1979 9.24037C34.1581 9.26928 34.111 9.28648 34.0619 9.29003C34.0128 9.29357 33.9638 9.28331 33.9202 9.26042L32.4487 8.48681C32.4108 8.46691 32.3687 8.45652 32.326 8.45652C32.2832 8.45652 32.2411 8.46691 32.2033 8.48681L30.7318 9.26042C30.6883 9.28331 30.6392 9.29357 30.5901 9.29003C30.5411 9.28648 30.494 9.26928 30.4542 9.24037C30.4143 9.21146 30.3834 9.17198 30.3649 9.12641C30.3463 9.08085 30.3409 9.031 30.3492 8.98251L30.6302 7.34396C30.6375 7.30183 30.6343 7.25856 30.6211 7.21789C30.608 7.17723 30.5851 7.14038 30.5545 7.11053L29.3639 5.9502C29.3287 5.91585 29.3037 5.87233 29.292 5.82457C29.2802 5.7768 29.282 5.72669 29.2972 5.6799C29.3124 5.63311 29.3404 5.5915 29.378 5.55979C29.4156 5.52808 29.4614 5.50753 29.51 5.50046L31.1553 5.2614C31.1976 5.25525 31.2378 5.23891 31.2723 5.21379C31.3069 5.18866 31.3349 5.1555 31.3538 5.11717L32.0896 3.62637C32.1113 3.58226 32.145 3.54512 32.1868 3.51915C32.2286 3.49319 32.2768 3.47942 32.326 3.47942C32.3752 3.47942 32.4234 3.49319 32.4652 3.51915C32.5069 3.54512 32.5406 3.58217 32.5624 3.62628Z" fill="#FFE966"/>
<path d="M29.8003 5.79226C29.8426 5.78613 29.8828 5.76981 29.9174 5.7447C29.952 5.71959 29.98 5.68645 29.999 5.64812L30.1152 5.41248L29.51 5.50037C29.4701 5.50621 29.4321 5.52111 29.3989 5.54394C29.3656 5.56676 29.3381 5.5969 29.3183 5.63203C29.2985 5.66716 29.2871 5.70636 29.2848 5.74662C29.2825 5.78687 29.2895 5.82711 29.3052 5.86424L29.8003 5.79226ZM35.288 5.95011C35.3233 5.91576 35.3482 5.87225 35.36 5.82448C35.3718 5.77671 35.37 5.7266 35.3548 5.67981C35.3395 5.63302 35.3115 5.59142 35.2739 5.55971C35.2363 5.52799 35.1906 5.50744 35.1419 5.50037L33.4967 5.26131C33.4544 5.25518 33.4142 5.23885 33.3796 5.21372C33.345 5.18859 33.317 5.15543 33.2981 5.11708L32.5625 3.62628C32.5407 3.58215 32.507 3.54499 32.4652 3.519C32.4234 3.49302 32.3752 3.47925 32.326 3.47925C32.2768 3.47925 32.2286 3.49302 32.1868 3.519C32.145 3.54499 32.1113 3.58215 32.0895 3.62628L31.5175 4.78529L31.9433 5.64803C31.9622 5.68636 31.9902 5.71952 32.0248 5.74465C32.0593 5.76977 32.0995 5.78611 32.1418 5.79226L33.7871 6.03132C33.8357 6.03839 33.8815 6.05894 33.9191 6.09065C33.9567 6.12236 33.9847 6.16397 33.9999 6.21076C34.0151 6.25755 34.0169 6.30766 34.0051 6.35543C33.9934 6.40319 33.9684 6.44671 33.9332 6.48105L32.7426 7.64147C32.712 7.67133 32.6891 7.70817 32.676 7.74884C32.6628 7.78951 32.6596 7.83278 32.6669 7.87491L32.8038 8.67357L33.9202 9.26042C33.9637 9.28331 34.0128 9.29357 34.0619 9.29003C34.111 9.28648 34.1581 9.26928 34.1979 9.24037C34.2377 9.21146 34.2686 9.17198 34.2871 9.12641C34.3057 9.08085 34.3111 9.031 34.3028 8.98251L34.0217 7.34396C34.0145 7.30182 34.0176 7.25855 34.0308 7.21788C34.044 7.17721 34.0669 7.14037 34.0976 7.11053L35.288 5.95011ZM25.962 5.90616C25.9972 5.87182 26.0221 5.82831 26.0339 5.78055C26.0457 5.73279 26.0439 5.68269 26.0287 5.6359C26.0135 5.58911 25.9855 5.5475 25.9479 5.51579C25.9103 5.48407 25.8646 5.46351 25.8159 5.45643L24.1707 5.21736C24.1284 5.21121 24.0882 5.19486 24.0536 5.16974C24.0191 5.14461 23.9911 5.11146 23.9722 5.07313L23.2364 3.58233C23.2146 3.53822 23.1809 3.50109 23.1392 3.47512C23.0974 3.44915 23.0492 3.43539 23 3.43539C22.9508 3.43539 22.9026 3.44915 22.8608 3.47512C22.819 3.50109 22.7853 3.53822 22.7635 3.58233L22.1914 4.74135L22.6172 5.60408C22.6361 5.64242 22.6641 5.67558 22.6987 5.7007C22.7333 5.72583 22.7734 5.74217 22.8158 5.74831L24.4609 5.98737C24.5096 5.99444 24.5553 6.015 24.5929 6.04671C24.6306 6.07842 24.6585 6.12002 24.6738 6.16681C24.689 6.2136 24.6908 6.26371 24.679 6.31148C24.6672 6.35925 24.6423 6.40277 24.6071 6.43711L23.4166 7.59753C23.3859 7.62737 23.363 7.66422 23.3498 7.70488C23.3366 7.74555 23.3335 7.78882 23.3407 7.83097L23.4777 8.62963L24.5941 9.21647C24.6377 9.23937 24.6868 9.24962 24.7358 9.24608C24.7849 9.24254 24.832 9.22534 24.8718 9.19642C24.9116 9.16751 24.9425 9.12804 24.9611 9.08247C24.9796 9.0369 24.985 8.98705 24.9767 8.93856L24.6956 7.30002C24.6884 7.25788 24.6915 7.2146 24.7048 7.17394C24.718 7.13327 24.7409 7.09643 24.7715 7.06658L25.962 5.90616ZM16.6361 5.90616C16.6713 5.87182 16.6962 5.8283 16.708 5.78053C16.7198 5.73277 16.718 5.68266 16.7028 5.63586C16.6876 5.58907 16.6596 5.54747 16.622 5.51576C16.5843 5.48405 16.5386 5.4635 16.4899 5.45643L14.8447 5.21736C14.8024 5.21122 14.7622 5.19488 14.7276 5.16976C14.693 5.14463 14.6651 5.11147 14.6461 5.07313L13.9104 3.58233C13.8886 3.53822 13.8549 3.50109 13.8132 3.47512C13.7714 3.44915 13.7232 3.43539 13.674 3.43539C13.6248 3.43539 13.5766 3.44915 13.5348 3.47512C13.493 3.50109 13.4593 3.53822 13.4376 3.58233L12.8655 4.74135L13.2913 5.60408C13.3102 5.64241 13.3382 5.67556 13.3727 5.70068C13.4073 5.72581 13.4475 5.74215 13.4898 5.74831L15.1351 5.98737C15.1838 5.99446 15.2295 6.01502 15.2671 6.04674C15.3047 6.07845 15.3327 6.12006 15.3479 6.16684C15.3631 6.21363 15.3649 6.26374 15.3531 6.3115C15.3413 6.35926 15.3164 6.40277 15.2812 6.43711L14.0907 7.59753C14.0601 7.62737 14.0371 7.66422 14.0239 7.70488C14.0107 7.74555 14.0076 7.78882 14.0148 7.83097L14.1518 8.62963L15.2681 9.21647C15.3117 9.23937 15.3608 9.24962 15.4098 9.24608C15.4589 9.24254 15.506 9.22534 15.5458 9.19642C15.5856 9.16751 15.6165 9.12804 15.6351 9.08247C15.6536 9.0369 15.659 8.98705 15.6507 8.93856L15.3697 7.30002C15.3625 7.25788 15.3656 7.2146 15.3789 7.17394C15.3921 7.13327 15.415 7.09643 15.4456 7.06658L16.6361 5.90616ZM31.0938 9.01775C31.056 8.99786 31.0139 8.98747 30.9711 8.98747C30.9284 8.98747 30.8863 8.99786 30.8484 9.01775L30.4428 9.23106C30.4826 9.2641 30.5314 9.28453 30.5828 9.28976C30.6343 9.29499 30.6862 9.28477 30.7318 9.26042L31.1436 9.04395L31.0938 9.01775Z" fill="#FFE236"/>
<path d="M2.47754 17.1826H43.5225V44.3408H2.47754V17.1826Z" fill="#F2F2F2"/>
<path d="M39.5674 17.1826H43.5225V44.3408H39.5674V17.1826Z" fill="#EEEEEE"/>
<path d="M19.5723 32.7393H26.4277C26.7774 32.7393 27.1127 32.8782 27.36 33.1254C27.6072 33.3726 27.7461 33.708 27.7461 34.0576V44.3408H18.2539V34.0576C18.2539 33.708 18.3928 33.3726 18.64 33.1254C18.8873 32.8782 19.2226 32.7393 19.5723 32.7393Z" fill="#FFCD85"/>
<path d="M26.4277 32.7393H22.4727C22.8223 32.7393 23.1576 32.8782 23.4049 33.1254C23.6521 33.3726 23.791 33.708 23.791 34.0576V44.3408H27.7461V34.0576C27.7461 33.708 27.6072 33.3726 27.36 33.1254C27.1127 32.8782 26.7774 32.7393 26.4277 32.7393Z" fill="#FFC570"/>
<path d="M44.2256 14.5459H1.77441C1.43463 14.5459 1.15918 14.8213 1.15918 15.1611V16.5674C1.15918 16.9072 1.43463 17.1826 1.77441 17.1826H44.2256C44.5654 17.1826 44.8408 16.9072 44.8408 16.5674V15.1611C44.8408 14.8213 44.5654 14.5459 44.2256 14.5459Z" fill="#676E87"/>
<path d="M44.2256 14.5459H40.2705C40.4337 14.5459 40.5902 14.6107 40.7055 14.7261C40.8209 14.8415 40.8857 14.998 40.8857 15.1611V16.5674C40.8857 16.7306 40.8209 16.887 40.7055 17.0024C40.5902 17.1178 40.4337 17.1826 40.2705 17.1826H44.2256C44.3888 17.1826 44.5452 17.1178 44.6606 17.0024C44.776 16.887 44.8408 16.7306 44.8408 16.5674V15.1611C44.8408 14.998 44.776 14.8415 44.6606 14.7261C44.5452 14.6107 44.3888 14.5459 44.2256 14.5459Z" fill="#595F74"/>
<path d="M12.7607 21.1377H7.22363C6.78677 21.1377 6.43262 21.4918 6.43262 21.9287V27.9932C6.43262 28.43 6.78677 28.7842 7.22363 28.7842H12.7607C13.1976 28.7842 13.5518 28.43 13.5518 27.9932V21.9287C13.5518 21.4918 13.1976 21.1377 12.7607 21.1377Z" fill="#66C1FF"/>
<path d="M12.7607 32.7393H7.22363C6.78677 32.7393 6.43262 33.0934 6.43262 33.5303V39.5947C6.43262 40.0316 6.78677 40.3857 7.22363 40.3857H12.7607C13.1976 40.3857 13.5518 40.0316 13.5518 39.5947V33.5303C13.5518 33.0934 13.1976 32.7393 12.7607 32.7393Z" fill="#66C1FF"/>
<path d="M38.7764 21.1377H33.2393C32.8024 21.1377 32.4482 21.4918 32.4482 21.9287V27.9932C32.4482 28.43 32.8024 28.7842 33.2393 28.7842H38.7764C39.2132 28.7842 39.5674 28.43 39.5674 27.9932V21.9287C39.5674 21.4918 39.2132 21.1377 38.7764 21.1377Z" fill="#66C1FF"/>
<path d="M38.7764 32.7393H33.2393C32.8024 32.7393 32.4482 33.0934 32.4482 33.5303V39.5947C32.4482 40.0316 32.8024 40.3857 33.2393 40.3857H38.7764C39.2132 40.3857 39.5674 40.0316 39.5674 39.5947V33.5303C39.5674 33.0934 39.2132 32.7393 38.7764 32.7393Z" fill="#66C1FF"/>
<path d="M25.7686 21.1377H20.2314C19.7946 21.1377 19.4404 21.4918 19.4404 21.9287V27.9932C19.4404 28.43 19.7946 28.7842 20.2314 28.7842H25.7686C26.2054 28.7842 26.5596 28.43 26.5596 27.9932V21.9287C26.5596 21.4918 26.2054 21.1377 25.7686 21.1377Z" fill="#66C1FF"/>
<path d="M9.33301 21.1377H10.6514V28.7842H9.33301V21.1377Z" fill="#D9F0FF"/>
<path d="M13.5518 24.3044V25.6175C13.5372 25.6192 13.5225 25.6201 13.5078 25.6201H6.47656C6.46187 25.6201 6.4472 25.6192 6.43262 25.6175V24.3044C6.4472 24.3026 6.46187 24.3018 6.47656 24.3018H13.5078C13.5225 24.3018 13.5372 24.3026 13.5518 24.3044ZM9.33301 32.7393H10.6514V40.3857H9.33301V32.7393Z" fill="#D9F0FF"/>
<path d="M13.5518 35.906V37.219C13.5372 37.2208 13.5225 37.2217 13.5078 37.2217H6.47656C6.46187 37.2217 6.4472 37.2208 6.43262 37.219V35.906C6.4472 35.9042 6.46187 35.9033 6.47656 35.9033H13.5078C13.5225 35.9033 13.5372 35.9042 13.5518 35.906ZM22.3848 21.1377H23.7031V28.7842H22.3848V21.1377Z" fill="#D9F0FF"/>
<path d="M26.5596 24.3044V25.6175C26.545 25.6192 26.5303 25.6201 26.5156 25.6201H19.4844C19.4697 25.6201 19.455 25.6192 19.4404 25.6175V24.3044C19.455 24.3026 19.4697 24.3018 19.4844 24.3018H26.5156C26.5303 24.3018 26.545 24.3026 26.5596 24.3044ZM35.3926 21.1377H36.7109V28.7842H35.3926V21.1377Z" fill="#D9F0FF"/>
<path d="M39.5674 24.3044V25.6175C39.5528 25.6192 39.5381 25.6201 39.5234 25.6201H32.4922C32.4775 25.6201 32.4628 25.6192 32.4482 25.6175V24.3044C32.4628 24.3026 32.4775 24.3018 32.4922 24.3018H39.5234C39.5381 24.3018 39.5528 24.3026 39.5674 24.3044ZM35.3926 32.7393H36.7109V40.3857H35.3926V32.7393Z" fill="#D9F0FF"/>
<path d="M39.5674 35.906V37.219C39.5528 37.2208 39.5381 37.2217 39.5234 37.2217H32.4922C32.4775 37.2217 32.4628 37.2208 32.4482 37.219V35.906C32.4628 35.9042 32.4775 35.9033 32.4922 35.9033H39.5234C39.5381 35.9033 39.5528 35.9042 39.5674 35.906Z" fill="#D9F0FF"/>
<path d="M44.8408 45H1.15918C0.984354 45 0.816689 44.9306 0.693069 44.8069C0.569449 44.6833 0.5 44.5156 0.5 44.3408C0.5 44.166 0.569449 43.9983 0.693069 43.8747C0.816689 43.7511 0.984354 43.6816 1.15918 43.6816H44.8408C45.0156 43.6816 45.1833 43.7511 45.3069 43.8747C45.4306 43.9983 45.5 44.166 45.5 44.3408C45.5 44.5156 45.4306 44.6833 45.3069 44.8069C45.1833 44.9306 45.0156 45 44.8408 45Z" fill="#676E87"/>
</g>
<defs>
<clipPath id="clip0_341_976">
<rect width="45" height="45" fill="white" transform="translate(0.5)"/>
</clipPath>
</defs>
</svg>
