<svg width="35" height="35" viewBox="0 0 35 35" fill="none" xmlns="http://www.w3.org/2000/svg">
<path d="M15.9534 10.2966C15.0992 9.44234 15.0992 8.05766 15.9534 7.20344C16.8077 6.34922 18.1923 6.34922 19.0466 7.20344C19.9008 8.05766 19.9008 9.44234 19.0466 10.2966C18.1923 11.1508 16.8077 11.1508 15.9534 10.2966ZM33.9062 17.5C33.9062 26.5464 26.5464 33.9062 17.5 33.9062C8.45359 33.9062 1.09375 26.5464 1.09375 17.5C1.09375 8.45359 8.45359 1.09375 17.5 1.09375C26.5464 1.09375 33.9062 8.45359 33.9062 17.5ZM31.7188 17.5C31.7188 9.66 25.34 3.28125 17.5 3.28125C9.66 3.28125 3.28125 9.66 3.28125 17.5C3.28125 25.34 9.66 31.7188 17.5 31.7188C25.34 31.7188 31.7188 25.34 31.7188 17.5ZM20.7812 26.25H19.6875V14.2188C19.6875 13.615 19.1975 13.125 18.5938 13.125H16.4062C15.8025 13.125 15.3125 13.615 15.3125 14.2188C15.3125 14.8225 15.8025 15.3125 16.4062 15.3125H17.5V26.25H16.4062C15.8025 26.25 15.3125 26.74 15.3125 27.3438C15.3125 27.9475 15.8025 28.4375 16.4062 28.4375H20.7812C21.385 28.4375 21.875 27.9475 21.875 27.3438C21.875 26.74 21.385 26.25 20.7812 26.25Z" fill="#001A72" fill-opacity="0.8"/>
</svg>
