<svg width="40" height="41" viewBox="0 0 40 41" fill="none" xmlns="http://www.w3.org/2000/svg">
<g clip-path="url(#clip0_341_205)">
<path d="M27.5 0.5H12.5C9.18479 0.5 6.00537 1.81696 3.66117 4.16117C1.31696 6.50537 0 9.68479 0 13L0 28C0 31.3152 1.31696 34.4946 3.66117 36.8388C6.00537 39.183 9.18479 40.5 12.5 40.5H27.5C30.8152 40.5 33.9946 39.183 36.3388 36.8388C38.683 34.4946 40 31.3152 40 28V13C40 9.68479 38.683 6.50537 36.3388 4.16117C33.9946 1.81696 30.8152 0.5 27.5 0.5ZM36.25 28C36.25 32.825 32.325 36.75 27.5 36.75H12.5C7.675 36.75 3.75 32.825 3.75 28V13C3.75 8.175 7.675 4.25 12.5 4.25H27.5C32.325 4.25 36.25 8.175 36.25 13V28Z" fill="url(#paint0_linear_341_205)"/>
<path d="M20 10.5C17.3478 10.5 14.8043 11.5536 12.9289 13.4289C11.0536 15.3043 10 17.8478 10 20.5C10 23.1522 11.0536 25.6957 12.9289 27.5711C14.8043 29.4464 17.3478 30.5 20 30.5C22.6522 30.5 25.1957 29.4464 27.0711 27.5711C28.9464 25.6957 30 23.1522 30 20.5C30 17.8478 28.9464 15.3043 27.0711 13.4289C25.1957 11.5536 22.6522 10.5 20 10.5ZM20 26.75C18.343 26.748 16.7544 26.0889 15.5828 24.9172C14.4111 23.7456 13.752 22.157 13.75 20.5C13.75 17.0525 16.555 14.25 20 14.25C23.445 14.25 26.25 17.0525 26.25 20.5C26.25 23.945 23.445 26.75 20 26.75Z" fill="url(#paint1_linear_341_205)"/>
<path d="M30.75 11.0825C31.4859 11.0825 32.0825 10.4859 32.0825 9.74998C32.0825 9.01406 31.4859 8.41748 30.75 8.41748C30.0141 8.41748 29.4175 9.01406 29.4175 9.74998C29.4175 10.4859 30.0141 11.0825 30.75 11.0825Z" fill="url(#paint2_linear_341_205)"/>
</g>
<defs>
<linearGradient id="paint0_linear_341_205" x1="3.66" y1="36.84" x2="36.34" y2="4.16" gradientUnits="userSpaceOnUse">
<stop stop-color="#FFC107"/>
<stop offset="0.507" stop-color="#F44336"/>
<stop offset="0.99" stop-color="#9C27B0"/>
</linearGradient>
<linearGradient id="paint1_linear_341_205" x1="12.93" y1="27.57" x2="27.07" y2="13.43" gradientUnits="userSpaceOnUse">
<stop stop-color="#FFC107"/>
<stop offset="0.507" stop-color="#F44336"/>
<stop offset="0.99" stop-color="#9C27B0"/>
</linearGradient>
<linearGradient id="paint2_linear_341_205" x1="29.8075" y1="10.6925" x2="31.6925" y2="8.80748" gradientUnits="userSpaceOnUse">
<stop stop-color="#FFC107"/>
<stop offset="0.507" stop-color="#F44336"/>
<stop offset="0.99" stop-color="#9C27B0"/>
</linearGradient>
<clipPath id="clip0_341_205">
<rect width="40" height="40" fill="white" transform="translate(0 0.5)"/>
</clipPath>
</defs>
</svg>
