<svg width="40" height="41" viewBox="0 0 40 41" fill="none" xmlns="http://www.w3.org/2000/svg">
<path d="M10.5556 32.7222C10.4277 32.7211 10.304 32.676 10.2056 32.5944C7.70416 30.5711 5.89163 27.8221 5.01763 24.7258C4.14362 21.6296 4.25114 18.3385 5.32537 15.306C6.3996 12.2734 8.3877 9.64847 11.0158 7.79279C13.6439 5.93711 16.7828 4.94196 20 4.9444C22.379 4.93736 24.7274 5.48118 26.8611 6.53329C26.9929 6.59891 27.0933 6.71418 27.1402 6.85377C27.1871 6.99336 27.1766 7.14585 27.1111 7.27774C27.0791 7.34349 27.0344 7.40228 26.9797 7.45073C26.9249 7.49918 26.8611 7.53634 26.792 7.56009C26.7228 7.58383 26.6496 7.59368 26.5766 7.58909C26.5037 7.58449 26.4323 7.56553 26.3667 7.53329C23.1304 5.94406 19.4167 5.62261 15.9555 6.6321C12.4942 7.64158 9.53566 9.90902 7.66111 12.9888C5.84285 15.977 5.17069 19.5235 5.76941 22.9697C6.36814 26.416 8.19709 29.5279 10.9167 31.7277C10.9733 31.774 11.0203 31.831 11.0549 31.8954C11.0895 31.9598 11.111 32.0305 11.1182 32.1033C11.1255 32.176 11.1182 32.2495 11.097 32.3195C11.0758 32.3895 11.0409 32.4546 10.9944 32.5111C10.9421 32.5773 10.8754 32.6307 10.7994 32.6673C10.7233 32.7039 10.6399 32.7226 10.5556 32.7222ZM20 36.0555C17.5178 36.0623 15.0707 35.4695 12.8667 34.3277C12.7355 34.26 12.6367 34.1429 12.5919 34.0022C12.5471 33.8616 12.56 33.7089 12.6278 33.5777C12.6956 33.4466 12.8127 33.3478 12.9533 33.303C13.094 33.2582 13.2466 33.2711 13.3778 33.3389C16.1774 34.7839 19.3727 35.274 22.4768 34.7345C25.5808 34.1949 28.4233 32.6553 30.5711 30.3502C32.7188 28.0451 34.054 25.101 34.3732 21.9667C34.6923 18.8323 33.978 15.6795 32.3389 12.9888C31.4757 11.5767 30.3786 10.3218 29.0944 9.27774C28.9808 9.18527 28.9083 9.05167 28.8927 8.906C28.8771 8.76033 28.9196 8.6144 29.0111 8.49996C29.057 8.44289 29.1136 8.39544 29.1779 8.36035C29.2421 8.32525 29.3127 8.30319 29.3855 8.29545C29.4582 8.28771 29.5319 8.29443 29.602 8.31522C29.6722 8.33602 29.7376 8.37048 29.7944 8.41663C31.1759 9.54023 32.3557 10.8911 33.2833 12.4111C34.719 14.7694 35.5012 17.4673 35.5495 20.2278C35.5978 22.9883 34.9105 25.7119 33.5582 28.119C32.2059 30.5261 30.2374 32.5299 27.8547 33.9246C25.4719 35.3194 22.7609 36.0549 20 36.0555Z" fill="#001A72" fill-opacity="0.8"/>
<path d="M19.4445 35.4999C19.3068 35.4996 19.1742 35.4481 19.0723 35.3555C16.9857 33.4844 15.3957 31.1251 14.4445 28.4888C13.3895 25.955 12.8239 23.2442 12.7778 20.4999C12.7839 17.7495 13.3511 15.0292 14.4445 12.5055C15.4875 9.91846 17.0644 7.58053 19.0723 5.64436C19.1827 5.55566 19.3229 5.51251 19.4641 5.52372C19.6053 5.53492 19.7369 5.59965 19.832 5.70465C19.927 5.80966 19.9784 5.94702 19.9756 6.08864C19.9727 6.23027 19.9159 6.36546 19.8167 6.46658C17.9194 8.29283 16.4278 10.4981 15.4389 12.9388C14.4153 15.3281 13.888 17.9006 13.8889 20.4999C13.9246 23.0978 14.4524 25.6653 15.4445 28.0666C16.3425 30.5516 17.8451 32.774 19.8167 34.5332C19.8996 34.6086 19.9578 34.7072 19.9836 34.8162C20.0095 34.9252 20.0017 35.0395 19.9615 35.144C19.9212 35.2485 19.8503 35.3384 19.7581 35.402C19.6658 35.4655 19.5565 35.4996 19.4445 35.4999Z" fill="#001A72" fill-opacity="0.8"/>
<path d="M20.5555 35.4998C20.4435 35.4995 20.3342 35.4654 20.2419 35.4019C20.1497 35.3384 20.0788 35.2484 20.0385 35.1439C19.9983 35.0394 19.9905 34.9251 20.0164 34.8161C20.0422 34.7071 20.1004 34.6085 20.1833 34.5332C22.1549 32.774 23.6575 30.5516 24.5555 28.0665C25.5476 25.6653 26.0754 23.0977 26.1111 20.4998C26.112 17.9005 25.5847 15.3281 24.5611 12.9387C23.5722 10.498 22.0806 8.29276 20.1833 6.46651C20.1242 6.41909 20.0755 6.36011 20.0401 6.29318C20.0047 6.22625 19.9833 6.15278 19.9773 6.07729C19.9713 6.00181 19.9808 5.92589 20.0053 5.85421C20.0297 5.78253 20.0685 5.7166 20.1193 5.66046C20.1701 5.60433 20.2319 5.55918 20.3008 5.52778C20.3697 5.49639 20.4443 5.47941 20.52 5.47789C20.5957 5.47638 20.671 5.49036 20.7411 5.51897C20.8112 5.54759 20.8747 5.59023 20.9277 5.64429C22.9456 7.57778 24.5322 9.9159 25.5833 12.5054C26.6672 15.0311 27.2248 17.7513 27.2222 20.4998C27.1761 23.2442 26.6105 25.9549 25.5555 28.4887C24.598 31.1273 23.0002 33.4868 20.9055 35.3554C20.8094 35.443 20.6855 35.4942 20.5555 35.4998Z" fill="#001A72" fill-opacity="0.8"/>
<path d="M35 21.0554H5.00001C4.85267 21.0554 4.71136 20.9969 4.60718 20.8927C4.50299 20.7885 4.44446 20.6472 4.44446 20.4998C4.44446 20.3525 4.50299 20.2112 4.60718 20.107C4.71136 20.0028 4.85267 19.9443 5.00001 19.9443H35C35.1474 19.9443 35.2887 20.0028 35.3928 20.107C35.497 20.2112 35.5556 20.3525 35.5556 20.4998C35.5556 20.6472 35.497 20.7885 35.3928 20.8927C35.2887 20.9969 35.1474 21.0554 35 21.0554ZM32.7778 13.2776H7.22224C7.07489 13.2776 6.93359 13.2191 6.8294 13.1149C6.72521 13.0107 6.66668 12.8694 6.66668 12.7221C6.66668 12.5747 6.72521 12.4334 6.8294 12.3292C6.93359 12.225 7.07489 12.1665 7.22224 12.1665H32.7778C32.9251 12.1665 33.0664 12.225 33.1706 12.3292C33.2748 12.4334 33.3333 12.5747 33.3333 12.7221C33.3333 12.8694 33.2748 13.0107 33.1706 13.1149C33.0664 13.2191 32.9251 13.2776 32.7778 13.2776ZM32.7778 28.8332H7.22224C7.07489 28.8332 6.93359 28.7746 6.8294 28.6705C6.72521 28.5663 6.66668 28.425 6.66668 28.2776C6.66668 28.1303 6.72521 27.989 6.8294 27.8848C6.93359 27.7806 7.07489 27.7221 7.22224 27.7221H32.7778C32.9251 27.7221 33.0664 27.7806 33.1706 27.8848C33.2748 27.989 33.3333 28.1303 33.3333 28.2776C33.3333 28.425 33.2748 28.5663 33.1706 28.6705C33.0664 28.7746 32.9251 28.8332 32.7778 28.8332Z" fill="#001A72" fill-opacity="0.8"/>
<path d="M20 35.5C19.8527 35.5 19.7114 35.4415 19.6072 35.3373C19.503 35.2331 19.4445 35.0918 19.4445 34.9444V6.05556C19.4445 5.90821 19.503 5.76691 19.6072 5.66272C19.7114 5.55853 19.8527 5.5 20 5.5C20.1474 5.5 20.2887 5.55853 20.3929 5.66272C20.497 5.76691 20.5556 5.90821 20.5556 6.05556V34.9444C20.5556 35.0918 20.497 35.2331 20.3929 35.3373C20.2887 35.4415 20.1474 35.5 20 35.5Z" fill="#001A72" fill-opacity="0.8"/>
</svg>
