<svg width="40" height="41" viewBox="0 0 40 41" fill="none" xmlns="http://www.w3.org/2000/svg">
<path d="M20 21.75C14.4863 21.75 10 17.2638 10 11.75C10 6.23625 14.4863 1.75 20 1.75C25.5138 1.75 30 6.23625 30 11.75C30 17.2638 25.5138 21.75 20 21.75ZM20 4.25C15.8637 4.25 12.5 7.61375 12.5 11.75C12.5 15.8862 15.8637 19.25 20 19.25C24.1362 19.25 27.5 15.8862 27.5 11.75C27.5 7.61375 24.1362 4.25 20 4.25Z" fill="#001A72" fill-opacity="0.8"/>
<path d="M20.5 17H19.5C18.7994 16.9972 18.1182 16.7692 17.5571 16.3497C16.9959 15.9301 16.5846 15.3412 16.3838 14.67C16.3331 14.5114 16.3146 14.3442 16.3295 14.1783C16.3443 14.0124 16.3922 13.8512 16.4702 13.7041C16.5482 13.557 16.6548 13.4269 16.7838 13.3216C16.9128 13.2162 17.0615 13.1377 17.2213 13.0907C17.381 13.0436 17.5486 13.0289 17.7141 13.0475C17.8796 13.0661 18.0397 13.1176 18.185 13.1989C18.3303 13.2803 18.4579 13.3898 18.5603 13.5212C18.6627 13.6525 18.7378 13.803 18.7812 13.9637C18.875 14.28 19.1713 14.5013 19.5 14.5013H20.5C20.6991 14.5013 20.89 14.4222 21.0308 14.2814C21.1715 14.1406 21.2506 13.9497 21.2506 13.7506C21.2506 13.5515 21.1715 13.3606 21.0308 13.2199C20.89 13.0791 20.6991 13 20.5 13H19.5C17.7075 13 16.25 11.5412 16.25 9.75C16.25 7.95875 17.7075 6.5 19.5 6.5H20.5C21.9012 6.5 23.1387 7.3925 23.5825 8.7225C23.637 8.87883 23.6599 9.04442 23.6498 9.20966C23.6398 9.3749 23.597 9.5365 23.524 9.68508C23.451 9.83366 23.3492 9.96625 23.2245 10.0752C23.0999 10.1841 22.9548 10.2672 22.7978 10.3196C22.6407 10.372 22.4749 10.3926 22.3098 10.3804C22.1447 10.3682 21.9837 10.3233 21.8361 10.2483C21.6885 10.1734 21.5572 10.0698 21.45 9.94371C21.3427 9.81761 21.2616 9.67146 21.2112 9.51375C21.162 9.36408 21.0667 9.23381 20.9389 9.14154C20.8112 9.04928 20.6576 8.99974 20.5 9H19.5C19.3011 9 19.1103 9.07902 18.9697 9.21967C18.829 9.36032 18.75 9.55109 18.75 9.75C18.75 9.94891 18.829 10.1397 18.9697 10.2803C19.1103 10.421 19.3011 10.5 19.5 10.5H20.5C22.2925 10.5 23.75 11.9588 23.75 13.75C23.75 15.5413 22.2925 17 20.5 17Z" fill="#001A72" fill-opacity="0.8"/>
<path d="M20 8C19.6612 8 19.3487 7.8625 19.1125 7.6375C19.0625 7.575 19 7.5125 18.9625 7.4375C18.9129 7.37374 18.8749 7.30183 18.85 7.225C18.8141 7.15399 18.7884 7.07823 18.7738 7C18.7625 6.9125 18.75 6.8375 18.75 6.75C18.75 6.425 18.8862 6.1 19.1125 5.8625C19.575 5.4 20.4125 5.4 20.8875 5.8625C21.1125 6.1 21.25 6.425 21.25 6.75C21.25 6.8375 21.2375 6.9125 21.2238 7C21.2107 7.07847 21.1854 7.1544 21.1488 7.225C21.1234 7.30162 21.0854 7.37345 21.0363 7.4375C20.9862 7.5125 20.9362 7.575 20.8862 7.6375C20.65 7.8625 20.325 8 20 8ZM20 18C19.6612 18 19.3487 17.8625 19.1125 17.6375C19.0625 17.575 19 17.5125 18.9625 17.4375C18.9129 17.3737 18.8749 17.3018 18.85 17.225C18.8141 17.154 18.7884 17.0782 18.7738 17C18.7625 16.9125 18.75 16.8375 18.75 16.75C18.75 16.425 18.8862 16.1 19.1125 15.8625C19.575 15.4 20.4125 15.4 20.8875 15.8625C21.1125 16.1 21.25 16.425 21.25 16.75C21.25 16.8375 21.2375 16.9125 21.2238 17C21.2107 17.0785 21.1854 17.1544 21.1488 17.225C21.1234 17.3016 21.0854 17.3734 21.0363 17.4375C20.9862 17.5125 20.9362 17.575 20.8862 17.6375C20.65 17.8625 20.325 18 20 18ZM22.5 39.25H2.5C2.16848 39.25 1.85054 39.1183 1.61612 38.8839C1.3817 38.6495 1.25 38.3315 1.25 38V26.75C1.25 26.4187 1.38125 26.1 1.61625 25.8662C1.90875 25.5725 4.56625 23 7.5 23C9.93 23 13.065 24.8363 14.1187 25.5H20C20.5471 25.5008 21.0875 25.6212 21.5832 25.8527C22.0789 26.0842 22.5181 26.4213 22.87 26.8403C23.2218 27.2593 23.4778 27.7501 23.6201 28.2784C23.7624 28.8067 23.7875 29.3597 23.6938 29.8987L33.5575 25.7887C34.1273 25.5507 34.747 25.4573 35.3616 25.5169C35.9762 25.5764 36.5665 25.787 37.08 26.13C37.5942 26.4718 38.0158 26.9357 38.3072 27.4801C38.5986 28.0245 38.7507 28.6325 38.75 29.25C38.7501 29.4685 38.6929 29.6832 38.5841 29.8727C38.4753 30.0622 38.3187 30.2199 38.13 30.33L23.13 39.08C22.9387 39.1913 22.7213 39.2499 22.5 39.25ZM3.75 36.75H22.1613L36.0863 28.6275C35.9891 28.4601 35.8549 28.3172 35.6937 28.21C35.5233 28.0942 35.3265 28.0232 35.1214 28.0033C34.9163 27.9834 34.7095 28.0154 34.52 28.0962L22.9825 32.9037C22.8296 32.9673 22.6656 33 22.5 33H12.5C12.1685 33 11.8505 32.8683 11.6161 32.6339C11.3817 32.3995 11.25 32.0815 11.25 31.75C11.25 31.4185 11.3817 31.1005 11.6161 30.8661C11.8505 30.6317 12.1685 30.5 12.5 30.5H20C20.3218 30.4856 20.6257 30.3476 20.8484 30.1148C21.0711 29.8819 21.1953 29.5722 21.1953 29.25C21.1953 28.9278 21.0711 28.6181 20.8484 28.3852C20.6257 28.1524 20.3218 28.0144 20 28H13.75C13.5037 28 13.2612 27.9262 13.0562 27.7912C12.1 27.1537 9.23375 25.5 7.5 25.5C6.1375 25.5 4.56625 26.6 3.75 27.2987V36.75Z" fill="#001A72" fill-opacity="0.8"/>
</svg>
