<svg width="41" height="40" viewBox="0 0 41 40" fill="none" xmlns="http://www.w3.org/2000/svg">
<path d="M28.2777 33.4733C27.1366 34.1066 25.0488 32.8167 23.7888 33.1544C22.6466 33.46 21.6811 35.5768 20.5 35.5579C19.1944 35.5356 18.0333 33.3745 16.7711 33.0356C15.6311 32.7301 13.7355 34.0811 12.7222 33.4733C11.6033 32.8022 11.6777 30.3489 10.7544 29.4256C9.91885 28.59 7.60218 28.8123 7.02885 27.7812C6.39551 26.639 7.68551 24.5512 7.34773 23.2901C7.04218 22.149 4.92551 21.1834 4.9444 20.0023C4.96662 18.6979 7.12884 17.5355 7.46662 16.2744C7.77218 15.1333 6.42107 13.2379 7.02885 12.2245C7.69996 11.1056 10.1533 11.18 11.0766 10.2566C11.9122 9.42107 11.69 7.10451 12.7222 6.53117C13.8633 5.89784 15.9511 7.18891 17.2111 6.85113C18.3533 6.54447 19.3188 4.42669 20.5 4.44669C21.8055 4.46891 22.9666 6.63109 24.2288 6.96886C25.3688 7.27442 27.2644 5.9234 28.2777 6.53117C29.3966 7.20229 29.3222 9.65556 30.2455 10.5789C31.0811 11.4144 33.3977 11.1923 33.9711 12.2245C34.6044 13.3656 33.3144 15.4533 33.6522 16.7144C33.9577 17.8555 36.0744 18.8212 36.0555 20.0034C36.0333 21.3078 33.8711 22.47 33.5333 23.7312C33.2277 24.8723 34.5788 26.7679 33.9711 27.7801C33.3 28.899 30.8466 28.8245 29.9233 29.7479C29.0877 30.5834 29.31 32.9 28.2777 33.4733Z" fill="#3477E0"/>
<path d="M20.5 31.4612C26.8285 31.4612 31.9589 26.3309 31.9589 20.0023C31.9589 13.6737 26.8285 8.54329 20.5 8.54329C14.1714 8.54329 9.04108 13.6737 9.04108 20.0023C9.04108 26.3309 14.1714 31.4612 20.5 31.4612Z" fill="#6AC1F7"/>
<path d="M20.5 29.6578C25.8326 29.6578 30.1555 25.3349 30.1555 20.0023C30.1555 14.6697 25.8326 10.3467 20.5 10.3467C15.1674 10.3467 10.8444 14.6697 10.8444 20.0023C10.8444 25.3349 15.1674 29.6578 20.5 29.6578Z" fill="#3477E0"/>
<path d="M14.5411 17.0966C13.6633 17.0966 13.1844 17.6155 13.1844 18.5244V21.48C13.1844 22.3888 13.6644 22.9077 14.5399 22.9077C15.4177 22.9077 15.8966 22.3888 15.8966 21.48V18.5244C15.8966 17.6155 15.4177 17.0966 14.5411 17.0966ZM16.4766 17.1611V22.8433H17.3688V20.4966H18.5233V19.6855H17.3677V17.9733H18.8399V17.1622H16.4766V17.1611ZM19.2677 17.1611V22.8433H20.1588V20.4966H21.3144V19.6855H20.1588V17.9733H21.6311V17.1622H19.2666L19.2677 17.1611ZM22.0577 17.1611V22.8433H24.4933V22.0322H22.9499V20.3666H24.1766V19.5555H22.9499V17.9733H24.4933V17.1622H22.0577V17.1611ZM25.0377 17.1611V22.8433H25.9322V20.53H26.2399C26.6455 20.53 26.8233 20.7244 26.8233 21.2522V22.1466C26.8233 22.6088 26.8566 22.6966 26.9066 22.8433H27.8155C27.7266 22.6322 27.7177 22.4288 27.7177 22.1533V21.2755C27.7177 20.6833 27.5722 20.2533 27.1255 20.0677C27.5233 19.8811 27.7088 19.5 27.7088 18.9144V18.4677C27.7088 17.5911 27.3111 17.1611 26.3855 17.1611H25.0377ZM14.5411 17.9077C14.8244 17.9077 15.0033 18.0622 15.0033 18.4677V21.5366C15.0033 21.9422 14.8255 22.0966 14.5411 22.0966C14.2566 22.0966 14.0788 21.9422 14.0788 21.5366V18.4677C14.0788 18.0622 14.2566 17.9077 14.5411 17.9077ZM25.9322 17.9733H26.3611C26.6777 17.9733 26.8166 18.1511 26.8166 18.5566V19.1166C26.8166 19.5722 26.6144 19.7177 26.2811 19.7177H25.9322V17.9733Z" fill="#F2F2F2"/>
<path d="M20.52 3.33554C19.26 3.31443 18.5844 4.17888 18.0322 4.76554C17.4811 5.35221 16.9533 5.76888 16.9255 5.77666C16.7855 5.81443 16.0366 5.70999 15.1877 5.5011C14.3377 5.29332 13.2844 4.94554 12.1822 5.55777C11.08 6.16888 10.9266 7.25554 10.7433 8.03999C10.5589 8.82554 10.31 9.4511 10.2911 9.46999C10.1889 9.57221 9.48664 9.85554 8.64664 10.1C7.80664 10.3444 6.72442 10.5722 6.07553 11.6533C5.42664 12.7344 5.83775 13.7489 6.07108 14.52C6.30331 15.2922 6.39886 15.9589 6.39219 15.9855C6.35442 16.1255 5.88997 16.7211 5.28553 17.3522C4.67997 17.9844 3.85442 18.7222 3.83331 19.9822C3.81108 21.2422 4.67664 21.9178 5.26331 22.47C5.85108 23.0222 6.26775 23.5522 6.27442 23.5789C6.31219 23.7189 6.20775 24.4644 5.99886 25.3144C5.79108 26.1644 5.44331 27.2178 6.05553 28.32C6.66664 29.4222 7.75331 29.5744 8.53775 29.7589C9.32331 29.9433 9.94886 30.1922 9.96775 30.2111C10.0711 30.3133 10.3533 31.0155 10.5977 31.8555C10.8422 32.6955 11.07 33.7778 12.1511 34.4267C13.2322 35.0755 14.2466 34.6644 15.0177 34.4267C15.79 34.1944 16.4566 34.0989 16.4833 34.1055C16.484 34.1055 16.4848 34.1055 16.4855 34.1055C16.6255 34.1433 17.2189 34.6078 17.85 35.2122C18.4822 35.8178 19.22 36.6433 20.48 36.6644C21.74 36.6867 22.4155 35.8222 22.9677 35.2344C23.52 34.6467 24.05 34.23 24.0766 34.2233C24.2166 34.1855 24.9633 34.29 25.8122 34.4989C26.6622 34.7067 27.7144 35.0533 28.8155 34.4433C29.9177 33.8311 30.0722 32.7444 30.2566 31.96C30.4411 31.1744 30.69 30.5489 30.7089 30.53C30.8111 30.4278 31.5133 30.1444 32.3533 29.9C33.1933 29.6555 34.2755 29.4278 34.9244 28.3467C35.5733 27.2655 35.1622 26.2511 34.9289 25.48C34.6966 24.7078 34.6011 24.0411 34.6077 24.0144C34.6455 23.8744 35.11 23.2789 35.7144 22.6478C36.32 22.0155 37.1455 21.2778 37.1666 20.0178C37.1889 18.7578 36.3244 18.0822 35.7366 17.53C35.1489 16.9778 34.7322 16.4478 34.7255 16.4211C34.6877 16.2811 34.7922 15.5355 35.0011 14.6855C35.2089 13.8355 35.5566 12.7844 34.9444 11.6822C34.3333 10.58 33.2466 10.4267 32.4622 10.2433C31.6766 10.0589 31.0511 9.80999 31.0322 9.79221C30.9289 9.68999 30.6466 8.98666 30.4022 8.14777C30.1577 7.30666 29.93 6.22332 28.8489 5.57554C27.7677 4.92665 26.7533 5.33888 25.9822 5.57554C25.21 5.80777 24.5433 5.90332 24.5166 5.89665C24.3766 5.85888 23.7811 5.39443 23.15 4.78999C22.5177 4.18443 21.78 3.35888 20.52 3.33777V3.33554ZM20.5 4.44666C21.8055 4.46888 22.9666 6.62999 24.2277 6.96888C25.3689 7.27443 27.2644 5.92221 28.2777 6.52999C29.3966 7.20221 29.3222 9.65666 30.2455 10.58C31.0811 11.4144 33.3989 11.1911 33.9722 12.2244C34.6055 13.3655 33.3133 15.4533 33.65 16.7144C33.9566 17.8555 36.0755 18.8211 36.0555 20.0022C36.0333 21.3078 33.8722 22.4689 33.5333 23.73C33.2277 24.8711 34.58 26.7667 33.9722 27.78C33.3011 28.8989 30.8455 28.8244 29.9222 29.7478C29.0877 30.5833 29.3111 32.9011 28.2777 33.4744C27.1366 34.1078 25.0489 32.8155 23.7877 33.1522C22.6466 33.4589 21.6811 35.5778 20.5 35.5578C19.1944 35.5355 18.0333 33.3733 16.7722 33.0355C15.6311 32.73 13.7355 34.0822 12.7222 33.4744C11.6033 32.8033 11.6777 30.3478 10.7544 29.4244C9.91886 28.59 7.60108 28.8133 7.02775 27.78C6.39442 26.6389 7.68664 24.5511 7.34997 23.29C7.04219 22.1489 4.92331 21.1833 4.94442 20.0022C4.96664 18.6967 7.12775 17.5355 7.46664 16.2744C7.77219 15.1333 6.41997 13.2378 7.02775 12.2244C7.69886 11.1055 10.1544 11.18 11.0777 10.2567C11.9122 9.4211 11.6889 7.10332 12.7222 6.52999C13.8633 5.89666 15.9511 7.18888 17.2122 6.85221C18.3533 6.54443 19.3189 4.42554 20.5 4.44666Z" fill="#E9EDED"/>
</svg>
