<svg width="48" height="48" viewBox="0 0 48 48" fill="none" xmlns="http://www.w3.org/2000/svg">
<g clip-path="url(#clip0_131_2252)">
<path d="M16.9081 6.78356L14.3236 9.36806C13.5965 10.0951 12.4178 10.0951 11.6908 9.36806C10.9637 8.64103 10.9637 7.46231 11.6908 6.73528L14.2753 4.15078C14.6386 3.7875 15.2274 3.7875 15.5907 4.15078L16.9081 5.46816C17.2713 5.83134 17.2713 6.42028 16.9081 6.78356ZM24.1013 8.37187L21.5168 10.9564C20.7898 11.6834 19.6111 11.6834 18.884 10.9564C18.157 10.2293 18.157 9.05062 18.884 8.32359L21.4685 5.73909C21.8318 5.37581 22.4207 5.37581 22.7839 5.73909L24.1013 7.05647C24.4646 7.41966 24.4646 8.00859 24.1013 8.37187ZM41.1511 31.0266L38.5666 33.6111C37.8395 34.3381 37.8395 35.5168 38.5666 36.2438C39.2936 36.9709 40.4723 36.9709 41.1993 36.2438L43.7838 33.6593C44.1471 33.2961 44.1471 32.7072 43.7838 32.3439L42.4665 31.0266C42.1032 30.6633 41.5143 30.6633 41.1511 31.0266ZM39.5628 23.8332L36.9783 26.4177C36.2512 27.1448 36.2512 28.3235 36.9783 29.0505C37.7053 29.7775 38.884 29.7775 39.611 29.0505L42.1955 26.466C42.5588 26.1027 42.5588 25.5139 42.1955 25.1506L40.8782 23.8332C40.515 23.47 39.926 23.47 39.5628 23.8332Z" fill="#8C8C8C"/>
<path d="M5.19134 7.01391L35.0072 11.6125L24.0444 22.5754L0.96443 9.95775C0.412711 9.65616 0.305555 8.90916 0.750117 8.4646C1.91346 7.30125 3.56271 6.76069 5.19134 7.01391ZM39.4691 47.1834C39.0244 47.6281 38.2775 47.5208 37.9759 46.9692L25.3549 23.8858L36.3177 12.923L40.9197 42.7422C41.1695 44.3675 40.6323 46.0202 39.4691 47.1834ZM17.5495 44.9525L16.974 45.5279C16.5975 45.9044 15.9625 45.7988 15.728 45.3208L11.412 36.5223L2.61134 32.2042C2.1334 31.9697 2.02793 31.3346 2.40434 30.9582L2.97987 30.3827C3.78443 29.5781 4.90099 29.1661 6.03537 29.2553L17.5821 30.1632L17.7417 30.0036L17.7565 30.1779L17.9288 30.1905L17.7691 30.3502L18.6769 41.897C18.7661 43.0313 18.3541 44.1479 17.5495 44.9525Z" fill="#70C6EC"/>
<path d="M19.9128 33.5148C17.8016 35.4288 14.1018 37.9772 11.937 38.6153L10.8943 38.925C10.4873 39.0458 9.93359 38.8426 9.51274 38.4218C9.0919 38.0009 8.88865 37.4472 9.00949 37.0402L9.31915 35.9975C9.95731 33.8327 12.5058 30.1329 14.4197 28.0217L35.8901 4.77741C38.7232 1.63753 44.0198 -1.02666 46.4906 1.44422C48.9613 3.91509 46.2971 9.2116 43.1572 12.0447L19.9128 33.5148Z" fill="#F2F2F2"/>
<path d="M42.8052 30.7059C42.2475 30.1493 41.341 30.149 40.7844 30.7057L39.7121 31.7751L39.416 29.8315C39.613 29.7248 39.7966 29.593 39.9552 29.4343L42.5453 26.8543C43.0995 26.3001 43.1109 25.3986 42.546 24.8337L41.2331 23.5158C40.6806 22.9554 39.7736 22.9512 39.2098 23.5077L38.5524 24.1628L37.5978 17.8963L43.5137 12.4526C45.6151 10.5637 47.914 7.17684 47.996 4.20413C48.0658 1.65675 46.3721 -0.0450935 43.8207 0.013219C40.848 0.083719 37.4526 2.36991 35.5596 4.46016L30.0928 10.3563L23.8304 9.37781L24.4858 8.72466C25.0421 8.16891 25.0452 7.26272 24.4866 6.70406L23.1737 5.38613C22.6214 4.82597 21.7147 4.82231 21.1504 5.37806L18.5608 7.95788C18.3993 8.11931 18.2687 8.29931 18.1632 8.49253L16.2255 8.18981L17.2929 7.12547C17.8515 6.56681 17.854 5.65988 17.2994 5.10534L15.9807 3.77691C15.4194 3.22284 14.5112 3.22463 13.9577 3.77859L11.3677 6.35859C11.0936 6.63272 10.9004 6.97209 10.7881 7.34044L5.29727 6.48253C3.53852 6.21722 1.6878 6.81253 0.425739 8.06803C-0.252355 8.74716 -0.0964486 9.88528 0.748614 10.3542L20.1931 21.0336L14.0425 27.6673C13.6163 28.1358 13.1642 28.6769 12.7106 29.2559L6.06733 28.7216C4.77893 28.6189 3.5239 29.0828 2.61696 29.9898L2.03561 30.5663C1.4209 31.1804 1.58955 32.225 2.37293 32.6125L8.82818 35.7954C8.82508 35.8055 8.82068 35.8166 8.81768 35.8267L8.50596 36.8688C8.36974 37.3246 8.4918 37.8724 8.81383 38.3558L7.94805 39.2183C7.7523 39.4131 7.75183 39.7297 7.94655 39.9251C8.14108 40.1207 8.45786 40.1215 8.65333 39.9266L9.51958 39.0636C9.95308 39.3552 10.5048 39.5284 11.0074 39.3794C11.293 39.2949 11.9138 39.1131 12.0843 39.0607L15.2391 45.5211C15.6212 46.318 16.6661 46.4823 17.288 45.8684L17.8628 45.2936C18.772 44.3844 19.2384 43.129 19.1425 41.8479L18.6317 35.2075C19.2143 34.7548 19.7588 34.3036 20.2301 33.878C20.231 33.877 20.2322 33.8758 20.2334 33.8748L26.888 27.7513L37.4933 47.2324C37.9572 48.0907 39.119 48.2393 39.7811 47.568C41.0532 46.2959 41.6495 44.4761 41.3764 42.7008L40.5401 37.2104C40.912 37.1003 41.2543 36.9075 41.53 36.6321L44.1197 34.0523C44.6784 33.4936 44.6784 32.5844 44.1205 32.0265L42.8052 30.7059ZM39.9138 24.2177C40.0837 24.0503 40.3563 24.0505 40.5233 24.2194L41.8386 25.5398C42.0089 25.7101 42.0089 25.9771 41.8393 26.1468L39.249 28.7271C39.2486 28.7274 39.2483 28.7275 39.248 28.7279L38.7393 25.3883L39.9138 24.2177ZM21.8541 6.08813C22.0237 5.92097 22.2966 5.92069 22.4637 6.08981L23.7791 7.41019C23.9491 7.58081 23.943 7.85419 23.7795 8.01722L22.6059 9.18656L19.2673 8.66503L21.8541 6.08813ZM12.0738 7.06613L14.6638 4.48613C14.832 4.31897 15.1078 4.31944 15.275 4.48491L16.5912 5.81091C16.7585 5.97816 16.7529 6.25144 16.5866 6.41812L15.0017 7.99866L11.7869 7.49634C11.8539 7.33716 11.9487 7.19119 12.0738 7.06613ZM1.2319 9.47897C0.971176 9.33441 0.924301 8.98387 1.13186 8.77584C2.17202 7.74122 3.71205 7.25625 5.14596 7.47056L29.2736 11.24L20.8937 20.278L1.2319 9.47897ZM2.81561 31.7161C2.64808 31.6334 2.60927 31.4063 2.7409 31.2745L3.32224 30.6981C4.02349 29.9969 4.99483 29.6398 5.98765 29.7181L11.9945 30.2011C10.8569 31.7559 9.79099 33.4672 9.18283 34.8554L2.81561 31.7161ZM18.1457 41.9237C18.2197 42.9131 17.8589 43.8838 17.156 44.5869L16.5836 45.1593C16.4521 45.2891 16.2251 45.2655 16.139 45.0858L13.0253 38.7094C14.4152 38.1067 16.1278 37.0489 17.6851 35.9188L18.1457 41.9237ZM19.5583 33.1375C14.5165 37.6902 10.7906 38.3878 10.7246 38.4208C10.6156 38.4531 10.4419 38.4208 10.254 38.3321L13.2021 35.3951C13.3978 35.2004 13.3983 34.8838 13.2036 34.6883C13.0089 34.4926 12.692 34.4921 12.4968 34.6868L9.54911 37.6235C9.46221 37.4369 9.43118 37.2644 9.4638 37.1551C9.48911 37.1051 10.207 33.3682 14.7789 28.3433L36.2967 5.13553C38.1106 3.13275 41.2857 1.07353 43.8447 1.01278C45.8057 0.962157 47.0514 2.19788 46.9966 4.17666C46.9263 6.73547 44.8549 9.90291 42.8411 11.7132L19.5583 33.1375ZM39.0713 46.8593C38.8701 47.0586 38.5189 47.0272 38.3723 46.7558L27.6464 27.0536L36.7108 18.7127L40.3883 42.852C40.6039 44.2535 40.17 45.7605 39.0713 46.8593ZM43.4137 33.3448L40.8239 35.9243C40.6992 36.049 40.5502 36.144 40.3878 36.2107L39.8988 33.0006L41.4908 31.413C41.6587 31.246 41.9313 31.2458 42.0978 31.4123L43.4131 32.7326C43.585 32.9048 43.5797 33.1788 43.4137 33.3448Z" fill="black"/>
<path d="M42.6487 5.35791C41.8057 4.51097 40.4418 4.13588 39.4685 5.05913C39.2682 5.24897 39.2598 5.56528 39.4498 5.76572C39.6396 5.96663 39.9565 5.97459 40.1564 5.78447C40.7677 5.20388 41.5658 5.68688 41.9405 6.06319C42.3152 6.43931 42.7936 7.23816 42.2117 7.84678C42.0211 8.04647 42.0281 8.36278 42.2278 8.55356C42.4279 8.74472 42.7441 8.73647 42.9346 8.53744C43.8607 7.56844 43.492 6.20428 42.6487 5.35791Z" fill="black"/>
</g>
<defs>
<clipPath id="clip0_131_2252">
<rect width="48" height="48" fill="white"/>
</clipPath>
</defs>
</svg>
