<svg width="40" height="41" viewBox="0 0 40 41" fill="none" xmlns="http://www.w3.org/2000/svg">
<g clip-path="url(#clip0_341_236)">
<path d="M17.5 22.6875C17.8315 22.6875 18.1495 22.5558 18.3839 22.3214C18.6183 22.087 18.75 21.769 18.75 21.4375C18.75 21.106 18.6183 20.788 18.3839 20.5536C18.1495 20.3192 17.8315 20.1875 17.5 20.1875C16.274 20.2048 15.0591 19.9532 13.9407 19.4506C15.2097 18.0563 16.1303 16.3812 16.6271 14.5625H17.5C17.8315 14.5625 18.1495 14.4308 18.3839 14.1964C18.6183 13.962 18.75 13.644 18.75 13.3125C18.75 12.981 18.6183 12.663 18.3839 12.4286C18.1495 12.1942 17.8315 12.0625 17.5 12.0625H13.125V10.8125C13.125 10.481 12.9933 10.163 12.7589 9.92862C12.5245 9.6942 12.2065 9.5625 11.875 9.5625C11.5435 9.5625 11.2255 9.6942 10.9911 9.92862C10.7567 10.163 10.625 10.481 10.625 10.8125V12.0625H6.25C5.91848 12.0625 5.60054 12.1942 5.36612 12.4286C5.1317 12.663 5 12.981 5 13.3125C5 13.644 5.1317 13.962 5.36612 14.1964C5.60054 14.4308 5.91848 14.5625 6.25 14.5625H13.9975C13.5538 15.8506 12.8313 17.0249 11.8817 18.0017C11.2575 17.3715 10.7333 16.6496 10.3271 15.8611C10.2516 15.7151 10.1481 15.5855 10.0224 15.4796C9.89671 15.3737 9.75139 15.2936 9.59473 15.244C9.43808 15.1943 9.27317 15.176 9.10944 15.1902C8.94572 15.2043 8.78639 15.2506 8.64057 15.3264C8.49476 15.4022 8.36532 15.506 8.25968 15.6319C8.15403 15.7578 8.07424 15.9033 8.02488 16.06C7.97551 16.2168 7.95755 16.3817 7.972 16.5454C7.98646 16.7091 8.03306 16.8683 8.10913 17.014C8.56355 17.897 9.12965 18.7179 9.79351 19.4565C8.6801 19.9567 7.47044 20.2062 6.25 20.1875C5.91848 20.1875 5.60054 20.3192 5.36612 20.5536C5.1317 20.788 5 21.106 5 21.4375C5 21.769 5.1317 22.087 5.36612 22.3214C5.60054 22.5558 5.91848 22.6875 6.25 22.6875C8.223 22.7249 10.1664 22.2036 11.8557 21.1837C13.5559 22.2114 15.5139 22.733 17.5 22.6875Z" fill="#001A72" fill-opacity="0.8"/>
<path d="M38.75 13.3125H26.25C25.9185 13.3125 25.6005 13.4442 25.3661 13.6786C25.1317 13.913 25 14.231 25 14.5625C25 14.894 25.1317 15.212 25.3661 15.4464C25.6005 15.6808 25.9185 15.8125 26.25 15.8125H37.5V33.9375H19.6539L23.5852 27.0576C23.6859 26.8659 23.7423 26.6539 23.75 26.4375V5.8125C23.75 5.48098 23.6183 5.16305 23.3839 4.92863C23.1494 4.69422 22.8315 4.56252 22.5 4.5625H1.25C0.918484 4.56252 0.600552 4.69422 0.366135 4.92863C0.131718 5.16305 1.65745e-05 5.48098 0 5.8125L0 26.4375C1.65745e-05 26.769 0.131718 27.0869 0.366135 27.3214C0.600552 27.5558 0.918484 27.6875 1.25 27.6875H16.25V35.1875C16.2552 35.5176 16.3887 35.8327 16.6223 36.066C16.8558 36.2994 17.171 36.4326 17.5011 36.4375H38.75C39.0815 36.4375 39.3994 36.3058 39.6339 36.0714C39.8683 35.8369 40 35.519 40 35.1875V14.5625C40 14.231 39.8683 13.9131 39.6339 13.6786C39.3994 13.4442 39.0815 13.3125 38.75 13.3125ZM2.5 7.0625H21.25V25.1875H2.5V7.0625ZM20.3461 27.6875L18.75 30.4808V27.6875H20.3461Z" fill="#001A72" fill-opacity="0.8"/>
<path d="M26.25 25.8125V30.1875C26.25 30.519 26.3817 30.837 26.6161 31.0714C26.8505 31.3058 27.1685 31.4375 27.5 31.4375C27.8315 31.4375 28.1495 31.3058 28.3839 31.0714C28.6183 30.837 28.75 30.519 28.75 30.1875V28.9375H32.5V30.1875C32.5 30.519 32.6317 30.837 32.8661 31.0714C33.1005 31.3058 33.4185 31.4375 33.75 31.4375C34.0815 31.4375 34.3995 31.3058 34.6339 31.0714C34.8683 30.837 35 30.519 35 30.1875V25.8125C35 24.6522 34.5391 23.5394 33.7186 22.7189C32.8981 21.8984 31.7853 21.4375 30.625 21.4375C29.4647 21.4375 28.3519 21.8984 27.5314 22.7189C26.7109 23.5394 26.25 24.6522 26.25 25.8125ZM30.625 23.9375C31.1221 23.938 31.5987 24.1358 31.9502 24.4873C32.3017 24.8388 32.4995 25.3154 32.5 25.8125V26.4375H28.75V25.8125C28.7505 25.3154 28.9483 24.8388 29.2998 24.4873C29.6513 24.1358 30.1279 23.938 30.625 23.9375Z" fill="#001A72" fill-opacity="0.8"/>
<path d="M30.625 20.1875C31.3154 20.1875 31.875 19.6279 31.875 18.9375C31.875 18.2471 31.3154 17.6875 30.625 17.6875C29.9346 17.6875 29.375 18.2471 29.375 18.9375C29.375 19.6279 29.9346 20.1875 30.625 20.1875Z" fill="#001A72" fill-opacity="0.8"/>
</g>
<defs>
<clipPath id="clip0_341_236">
<rect width="40" height="40" fill="white" transform="translate(0 0.5)"/>
</clipPath>
</defs>
</svg>
