<svg width="41" height="40" viewBox="0 0 41 40" fill="none" xmlns="http://www.w3.org/2000/svg">
<path d="M20.7666 18.1166C20.6 18.0999 20.4 18.0999 20.2166 18.1166C16.25 17.9833 13.1 14.7333 13.1 10.7333C13.1 6.64992 16.4 3.33325 20.5 3.33325C24.5833 3.33325 27.9 6.64992 27.9 10.7333C27.8833 14.7333 24.7333 17.9833 20.7666 18.1166Z" stroke="#2D3633" stroke-width="1.5" stroke-linecap="round" stroke-linejoin="round"/>
<path d="M12.4333 24.2667C8.39999 26.9667 8.39999 31.3667 12.4333 34.0501C17.0167 37.1167 24.5333 37.1167 29.1167 34.0501C33.15 31.3501 33.15 26.9501 29.1167 24.2667C24.55 21.2167 17.0333 21.2167 12.4333 24.2667Z" stroke="#2D3633" stroke-width="1.5" stroke-linecap="round" stroke-linejoin="round"/>
</svg>
