<svg width="43" height="44" viewBox="0 0 43 44" fill="none" xmlns="http://www.w3.org/2000/svg">
<path d="M35.8334 13.0596V13.0417M35.8334 23.7917V17.5208M11.6459 38.1252H31.3542C33.828 38.1252 35.8334 36.1198 35.8334 33.646C35.8334 26.3347 25.0834 26.4794 21.5 26.4794C17.9167 26.4794 7.16669 26.3347 7.16669 33.646C7.16669 36.1198 9.17208 38.1252 11.6459 38.1252ZM28.6667 13.0417C28.6667 16.9997 25.4581 20.2083 21.5 20.2083C17.542 20.2083 14.3334 16.9997 14.3334 13.0417C14.3334 9.08363 17.542 5.875 21.5 5.875C25.4581 5.875 28.6667 9.08363 28.6667 13.0417Z" stroke="#09298F" stroke-width="1.5" stroke-linecap="round" stroke-linejoin="round"/>
</svg>
