<svg width="40" height="41" viewBox="0 0 40 41" fill="none" xmlns="http://www.w3.org/2000/svg">
<path d="M37.9688 31.1718C37.9688 35.1852 34.6852 38.4688 30.6718 38.4688H9.3282C5.31484 38.4688 2.03125 35.1852 2.03125 31.1718V9.8282C2.03125 5.81492 5.31484 2.53125 9.3282 2.53125H30.6718C34.6852 2.53125 37.9688 5.81492 37.9688 9.8282V31.1718Z" fill="#41464A"/>
<path d="M22.6895 18.7081L31.334 7.93384H28.8301L21.4379 17.1479L14.0449 7.93384H5.79102L17.3105 22.2917L8.66523 33.0667H11.1691L18.5621 23.8518L25.9559 33.0667H34.2098L22.6895 18.7081ZM9.86133 9.88688H13.1074L30.1387 31.1134H26.8926L9.86133 9.88688Z" fill="#F0F0F1"/>
</svg>
