<svg width="41" height="31" viewBox="0 0 41 31" fill="none" xmlns="http://www.w3.org/2000/svg">
<g clip-path="url(#clip0_341_209)">
<path d="M27.311 15.0483C23.5518 12.8858 19.9523 10.8977 16.2729 8.82202V21.2394C20.1447 18.9738 24.2257 16.8989 27.327 15.0483H27.311Z" fill="white"/>
<path d="M27.311 15.0483C23.5518 12.8858 16.2729 8.82202 16.2729 8.82202L25.9776 15.8434C25.9776 15.8434 24.2098 16.8989 27.311 15.0483Z" fill="#E8E0E0"/>
<path d="M16.9804 30.9601C9.17217 30.8054 6.50527 30.6662 4.86603 30.3026C3.75698 30.0611 2.79321 29.5248 2.08655 28.7469C1.54039 28.1582 1.10605 27.2599 0.769074 26.0137C0.48002 24.9754 0.367441 24.1115 0.20694 22.0014C-0.0387561 17.2392 -0.0973275 13.3457 0.20694 8.9953C0.45796 6.59288 0.579667 3.74093 2.24705 2.07709C3.03434 1.29839 3.95019 0.797272 4.97861 0.59011C6.58514 0.261764 13.4296 0.00219727 20.5153 0.00219727C27.5849 0.00219727 34.4446 0.261764 36.0527 0.59011C37.3374 0.849676 38.5423 1.62755 39.2498 2.63061C40.7711 5.20662 40.7977 8.40984 40.9521 10.9154C41.016 12.1093 41.016 18.8883 40.9521 20.0821C40.7118 24.0419 40.5185 25.4429 39.9724 26.8955C39.6346 27.8126 39.3464 28.2965 38.8474 28.8329C38.0648 29.6582 37.0671 30.2072 35.9872 30.4066C29.2302 30.9536 23.4925 31.0723 16.9804 30.9601ZM27.3278 15.0488C23.5686 12.8863 19.9691 10.881 16.2897 8.80533V21.2236C20.1615 18.9579 24.2433 16.8822 27.3438 15.0316L27.3278 15.0488Z" fill="#CD201F"/>
</g>
<defs>
<clipPath id="clip0_341_209">
<rect width="41" height="31" fill="white"/>
</clipPath>
</defs>
</svg>
